<?xml version="1.0" encoding="UTF-8" standalone="no"?>
<!-- Created with Inkscape (http://www.inkscape.org/) -->

<svg
   width="429.27072mm"
   height="240.06049mm"
   viewBox="0 0 429.27071 240.06048"
   version="1.1"
   id="svg1"
   inkscape:version="1.4.4 (1:1.4.4+202605061432+dcaf3e7d9e)"
   sodipodi:docname="serif04.svg"
   xmlns:inkscape="http://www.inkscape.org/namespaces/inkscape"
   xmlns:sodipodi="http://sodipodi.sourceforge.net/DTD/sodipodi-0.dtd"
   xmlns="http://www.w3.org/2000/svg"
   xmlns:svg="http://www.w3.org/2000/svg">
  <sodipodi:namedview
     id="namedview1"
     pagecolor="#ffffff"
     bordercolor="#ff2dff"
     borderopacity="1"
     inkscape:showpageshadow="2"
     inkscape:pageopacity="0.0"
     inkscape:pagecheckerboard="0"
     inkscape:deskcolor="#ffffff"
     inkscape:document-units="mm"
     showborder="true"
     inkscape:zoom="0.34096697"
     inkscape:cx="530.84321"
     inkscape:cy="231.694"
     inkscape:window-width="1920"
     inkscape:window-height="999"
     inkscape:window-x="0"
     inkscape:window-y="0"
     inkscape:window-maximized="1"
     inkscape:current-layer="F04"
     borderlayer="true" />
  <defs
     id="defs1" />
  <g
     inkscape:label="Seri F04"
     inkscape:groupmode="layer"
     id="F04"
     style="display:inline"
     transform="translate(118.67639,88.42437)">
    <rect
       style="fill:#999999;fill-opacity:0.521951;stroke-width:2.17277;stroke-linecap:round;stroke-linejoin:round"
       id="rect3"
       width="429.27072"
       height="240.06049"
       x="-118.67639"
       y="-88.42437" />
    <rect
       style="display:inline;fill:#666666;fill-opacity:1;stroke:none;stroke-width:1.48863;stroke-linecap:round;stroke-linejoin:round"
       id="rect27"
       width="167.59283"
       height="9.8308315"
       x="-92.237961"
       y="-21.468773" />
    <g
       id="body_chamber">
      <path
         style="fill:#88aa00;stroke-width:1.09429"
         d="m 71.8805,33.92309 c -4.5173,-3.41807 -4.609,-3.49967 -9.9067,-8.82112 L 56.6267,19.73084 V -2.02061 -23.77206 l 1.8973,-1.57948 1.8971,-1.5795 h 7.9735 c 8.651,0 8.7127,0.005 9.427,0.91419 0.4494,0.57116 43.9979,0.23608 50.1384,0.23608 h 5.4312 l 0.4572,0.52993 c 0.25148,0.291486 0.7229,0.8324 1.0476,1.20208 0.3246,0.36968 1.0707,3.25635 1.658,3.97038 1.6972,2.06355 2.352,2.85391 3.0004,3.62145 0.5911,0.69977 1.0687,1.6891 2.8677,5.94045 1.0036,2.37135 1.4194,3.32592 3.1059,7.12954 l 1.213,2.73576 0.045,12.92717 0.045,12.92717 -6.0987,6.09879 -6.0988,6.09877 -29.0961,-0.0138 -29.0959,-0.0138 z m 58.974,-4.34403 c 0.8291,-0.77894 0.2919,-2.12655 -0.8478,-2.12655 -0.6424,0 -1.2556,0.60716 -1.2556,1.24353 0,1.06415 1.3205,1.6185 2.1034,0.88302 z M 77.4426,28.86939 c 0.2238,-0.22384 0.4069,-0.6003 0.4069,-0.83656 0,-0.50931 -0.6762,-1.24353 -1.1452,-1.24353 -1.056,0 -1.7198,0.93258 -1.2755,1.79183 0.4223,0.81645 1.3524,0.94959 2.0138,0.28826 z m 24.1048,-15.11802 c 0.4558,-0.57953 0.4341,-1.14586 -0.063,-1.64322 -0.4974,-0.49735 -1.0637,-0.51919 -1.6432,-0.0634 -0.5474,0.43059 -0.5989,1.3181 -0.1051,1.8118 0.4938,0.49371 1.3813,0.44215 1.8119,-0.10527 z m 18.435,0.26098 c 0.8098,-0.43335 0.687,-1.78435 -0.1953,-2.14982 -0.9536,-0.39496 -1.8133,0.33242 -1.671,1.41378 0.097,0.73751 1.1141,1.13862 1.8663,0.73604 z M 64.2445,-11.28866 c 0.8024,-1.02009 -0.5681,-2.29832 -1.4831,-1.38328 -0.6521,0.65211 -0.1805,1.82384 0.734,1.82384 0.2383,0 0.544,-0.17985 0.7491,-0.44056 z m 64.5481,-6.05855 c 0.5178,-0.5988 0.3441,-1.33733 -0.4057,-1.72509 -0.4428,-0.22892 -0.5295,-0.22749 -0.8992,0.0148 -0.5364,0.35145 -0.7634,0.96036 -0.5587,1.49881 0.2929,0.77015 1.2834,0.88254 1.8636,0.21148 z"
         id="path535"
         sodipodi:nodetypes="cccccccscscsccscsccccccccsssscssccccsscccscccsscccccc" />
      <path
         id="path356-5"
         style="font-variation-settings:normal;display:inline;vector-effect:non-scaling-stroke;fill:#808000;fill-opacity:1;stroke:#808080;stroke-width:0.264583;stroke-linecap:round;stroke-linejoin:round;stroke-miterlimit:4;stroke-dasharray:none;stroke-dashoffset:0;stroke-opacity:1;-inkscape-stroke:hairline;stop-color:#000000"
         d="m 154.7815,22.07704 -25.8976,0.17829 v 2.05982 h -10.5575 c -0.039,0.0209 -0.077,0.0424 -0.1153,0.0641 h -4.3279 l -1.2195,-2.0004 -29.3879,1.00046 -0.8707,0.99994 H 77.703 l -0.01,-0.0641 H 63.4732 l 5.9516,17.45061 c 1.0845,3.1798 -1.595,8.38802 -1.1586,10.92492 2.2324,12.9774 8.4727,24.55715 16.2037,24.55715 12.1359,0 28.4887,0.15037 42.0346,0.0341 h 6e-4 l 1.912,1.62936 c 1.3574,1.1566 9.0715,6.44296 10.557,8.27856 7.7586,9.5872 18.3109,25.12721 19.1817,36.11821 0.7928,1.8498 3.9229,2.49391 7.4647,2.79621 7.2451,0.6184 29.8275,-10.87605 36.3854,-20.06905 2.3641,-3.314 3.176,-5.11339 3.176,-5.11339 -0.5963,-8.2116 -23.3558,-29.21805 -38.0948,-40.38565 -8.3062,-6.29349 -14.5414,-12.56916 -17.6263,-18.06556 -0.02,-2.6852 -0.091,-6.07549 -0.136,-10.69495 4.7817,-1.67658 5.6995,-9.60251 5.4555,-9.69864 z M 95.5149,44.38783 h 0.6485 c 1.5289,0.30397 3.8862,3.77002 10.081,3.94601 0.3218,0.055 0.6473,0.0833 0.9736,0.0853 1.6399,0.18615 3.2288,-0.39124 4.3905,-1.46192 0.6769,0.6871 1.2828,1.48938 1.8298,2.37866 0.059,1.98023 0.9913,2.74105 2.0666,4.3894 1.3307,3.60296 2.2081,7.70917 3.0804,11.28148 0.023,0.27061 0.045,0.54757 0.066,0.83096 0.6933,9.5977 -5.5535,7.48339 -17.1938,7.43159 -3.4247,-0.015 -15.0434,1.16458 -17.9053,-1.14722 -5.0822,-4.1054 -8.4488,-12.19696 -8.6073,-18.37976 -0.092,-3.58581 1.3479,-6.07679 2.4965,-8.43772 z" />
    </g>
    <path
       id="trigger"
       style="display:inline;fill:#f9f9f9;fill-opacity:1;stroke:#000000;stroke-width:0.0160457;stroke-dasharray:none"
       inkscape:transform-center-x="2.4326692"
       inkscape:transform-center-y="7.914196"
       d="m 111.4212,33.07014 -0.074,-0.054 c -0.7223,-0.3159 -0.8841,-0.4097 -3.2579,-0.5255 -0.01,-4e-4 -1.0142,-1.7604 -2.2228,-1.8621 l 6e-4,-0.01 c -0.1287,-0.01 -0.2535,-0.014 -0.3717,-0.01 -2.6652,0.029 -2.1424,0.118 -5.6605,1.0411 -0.7495,0.1967 -3.414,4.2581 -3.8126,6.1488 -0.032,0.152 0.2546,0.4269 0.2546,0.4269 l 2.7422,0.1179 -0.1391,3.2439 -1.9597,-0.084 c 0,0 -0.4996,0.4286 -0.4495,0.659 1.3434,6.1798 3.8912,13.5183 0.1593,25.7972 -0.5202,2.9018 2.5354,2.986 3.5596,1.5882 1.555,-2.1225 5.3277,-6.7864 6.2399,-11.915 0.9041,-5.0835 -1.9699,-10.0768 8.3012,-10.1974 2.5034,-0.09 1.6775,-5.546 0.2453,-4.3673 -0.468,0.3993 0.3072,2.9903 -0.3379,3.0446 -1.7198,0.1446 -0.4167,-2.2766 -0.146,-2.962 1.0295,-2.6066 -0.092,-3.566 -0.5697,-3.7061 -0.6116,-0.1798 -1.2016,-0.4523 -1.4324,-0.8348 -0.3214,-0.5323 -0.6922,-1.0359 -1.1078,-1.5035 -0.1478,-0.1661 -0.2548,-0.4743 -0.2353,-0.6955 0.3039,-1.4635 0.5221,-2.4173 0.4522,-3.0704 -0.048,-0.093 -0.1053,-0.1823 -0.1775,-0.2741 z m -2.7915,8.0673 c 0.3257,0.018 0.6249,0.1251 0.8689,0.3063 0.4065,0.3006 0.6625,0.789 0.6401,1.3324 -0.031,0.8686 -0.7688,1.5443 -1.638,1.5087 -0.8688,-0.032 -1.5447,-0.7691 -1.509,-1.6389 0.031,-0.8685 0.7695,-1.5445 1.638,-1.5085 z" />
    <g
       id="full_pipa">
      <g
         id="main_pipe"
         inkscape:label="main_pipa">
        <rect
           style="display:inline;vector-effect:non-scaling-stroke;fill:#008000;fill-opacity:1;stroke:#00ff00;stroke-width:0.792289;-inkscape-stroke:hairline"
           id="rect505"
           width="244.5809"
           height="25.234856"
           x="-168.68031"
           y="-1.0223677"
           transform="scale(-1,1)" />
        <rect
           style="display:inline;vector-effect:non-scaling-stroke;fill:#99ff55;fill-opacity:1;stroke:#00ff00;stroke-width:0.60569;-inkscape-stroke:hairline"
           id="rect506"
           width="244.59285"
           height="16.310543"
           x="-168.69215"
           y="3.4396701"
           transform="scale(-1,1)" />
      </g>
      <rect
         style="font-variation-settings:normal;vector-effect:non-scaling-stroke;fill:#ffffff;fill-opacity:1;fill-rule:evenodd;stroke:none;stroke-width:0.264583;stroke-linecap:round;stroke-linejoin:round;stroke-miterlimit:4;stroke-dasharray:none;stroke-dashoffset:0;stroke-opacity:1;-inkscape-stroke:hairline;stop-color:#000000"
         id="lubang_transfer"
         width="7.4802346"
         height="10.653667"
         x="81.076675"
         y="-8.1537151" />
      <g
         id="manometer">
        <rect
           style="font-variation-settings:normal;vector-effect:non-scaling-stroke;fill:#008000;fill-opacity:1;fill-rule:evenodd;stroke:none;stroke-width:0.337184;stroke-linecap:round;stroke-linejoin:round;stroke-miterlimit:4;stroke-dasharray:none;stroke-dashoffset:0;stroke-opacity:1;-inkscape-stroke:hairline;stop-color:#000000"
           id="lubang_manometer"
           width="12.148543"
           height="10.653667"
           x="39.562149"
           y="20.189608" />
        <rect
           style="font-variation-settings:normal;vector-effect:non-scaling-stroke;fill:#ffffff;fill-opacity:1;fill-rule:evenodd;stroke:none;stroke-width:0.264583;stroke-linecap:round;stroke-linejoin:round;stroke-miterlimit:4;stroke-dasharray:none;stroke-dashoffset:0;stroke-opacity:1;-inkscape-stroke:hairline;stop-color:#000000"
           id="rect521"
           width="7.4802346"
           height="10.653667"
           x="41.896255"
           y="20.189608" />
        <circle
           style="fill:#ffffff;fill-opacity:1;stroke:#ff0000;stroke-width:2;stroke-linecap:round;stroke-linejoin:round;stroke-dasharray:none"
           id="circle521"
           cx="45.199356"
           cy="40.605377"
           r="14.838552" />
        <circle
           style="fill:#ffffff;fill-opacity:1;stroke:#ff0000;stroke-width:2;stroke-linecap:round;stroke-linejoin:round;stroke-dasharray:none"
           id="mano_apar"
           cx="45.199356"
           cy="40.605377"
           r="14.838552" />
        <rect
           style="vector-effect:non-scaling-stroke;fill:#000000;fill-opacity:1;stroke:#1a1a1a;stroke-width:0.143298;stroke-linecap:round;stroke-linejoin:round;-inkscape-stroke:hairline"
           id="oring_drat_manometer"
           width="2.5228634"
           height="9.6703024"
           x="18.76638"
           y="-50.297737"
           rx="1.2614317"
           ry="1.5065098"
           transform="rotate(90)" />
      </g>
      <g
         id="tutup_depan">
        <rect
           style="vector-effect:non-scaling-stroke;fill:#ffffff;fill-opacity:1;stroke:#000000;stroke-width:0.3614;stroke-linecap:round;stroke-linejoin:round;-inkscape-stroke:hairline"
           id="akrilik_pasak_tutup"
           width="13.82962"
           height="17.375929"
           x="-79.379868"
           y="3.0616202"
           rx="2.1022906"
           ry="2.1022906" />
        <rect
           style="vector-effect:non-scaling-stroke;fill:#ff6600;fill-opacity:1;stroke:#800080;stroke-width:0.264583;stroke-linecap:round;stroke-linejoin:round;-inkscape-stroke:hairline"
           id="selang"
           width="10.1336"
           height="12.709938"
           x="-63.783798"
           y="5.3946247"
           rx="0"
           ry="0" />
        <rect
           style="vector-effect:non-scaling-stroke;fill:#000000;fill-opacity:1;stroke:#1a1a1a;stroke-width:0.283998;stroke-linecap:round;stroke-linejoin:round;-inkscape-stroke:hairline"
           id="oring_tutup"
           width="5"
           height="19.165331"
           x="-63.522396"
           y="2.4887407"
           rx="2.5"
           ry="2.9857142" />
        <rect
           style="vector-effect:non-scaling-stroke;fill:#ffffff;fill-opacity:1;stroke:#000000;stroke-width:0.22556;stroke-linecap:round;stroke-linejoin:round;-inkscape-stroke:hairline"
           id="akrilik_tutup"
           width="5"
           height="18.721395"
           x="-68.868416"
           y="2.3888872"
           rx="0"
           ry="0" />
        <rect
           style="display:inline;opacity:1;fill:#0048b7;fill-opacity:0.918306;stroke:none;stroke-width:0.0160457;stroke-linecap:round;stroke-linejoin:round;stroke-dasharray:none"
           id="selangusus"
           width="33.333542"
           height="14.883494"
           x="-56.604675"
           y="4.2373857" />
      </g>
      <circle
         style="fill:#000080;stroke:none;stroke-width:2.63069;stroke-linecap:round;stroke-linejoin:round"
         id="pasak_belakang1"
         cx="154.88493"
         cy="5.1040721"
         r="1.25" />
      <circle
         style="display:inline;fill:#000080;stroke:none;stroke-width:1.65164;stroke-linecap:round;stroke-linejoin:round"
         id="paku_pasak_tutup"
         cx="-70.984703"
         cy="11.761453"
         r="1.25" />
      <circle
         style="fill:#000080;stroke:none;stroke-width:2.63069;stroke-linecap:round;stroke-linejoin:round"
         id="pasak_belakang2"
         cx="154.88493"
         cy="18.144562"
         r="1.25" />
    </g>
    <path
       id="sear"
       style="fill:#f9f9f9;fill-opacity:1;stroke:#000000;stroke-width:0.00587875;stroke-dasharray:none"
       inkscape:transform-center-x="-10.04668"
       inkscape:transform-center-y="-2.2034172"
       d="m 107.1553,16.805899 -0.94774,0.05581 -3.97444,0.302824 c -0.3921,0.05 -0.44475,0.845445 -0.45785,1.206645 -0.022,0.6029 -0.17124,2.153481 -0.56534,2.545581 -1.308,1.3009 -6.713614,1.819826 -9.244914,1.813326 -19.0407,-0.048 -11.774081,12.081354 -6.867281,12.196154 3.7617,0.088 5.220969,-1.042892 7.246069,-1.633492 14.069496,-4.1031 12.082546,-6.022051 15.423346,-1.416451 0.1504,0.1633 0.44991,0.291539 0.67231,0.294039 0.6255,0.01 1.24777,0.07227 1.85777,0.19327 0.7805,0.1546 2.07019,-0.767627 2.65669,-1.292427 0.9502,-2.4567 1.20316,-4.826477 0.0729,-7.902877 -1.5016,-1.963 -4.64408,-6.348603 -5.87148,-6.362403 z m -20.42459,9.71517 c 0.424339,0.03081 0.79603,0.230481 1.054716,0.52865 0.268066,0.303114 0.418481,0.710954 0.386023,1.147216 -0.065,0.8551 -0.806663,1.494754 -1.660363,1.431954 -0.4136,-0.03052 -0.776776,-0.221177 -1.034563,-0.506946 -0.280164,-0.304903 -0.438959,-0.720773 -0.406176,-1.166337 0.056,-0.7489 0.631487,-1.334303 1.346687,-1.427303 v 0.0041 c 0.1022,0 0.207176,-0.01037 0.313676,-0.01137 z" />
    <g
       id="pompa">
      <g
         id="full_body_pompa">
        <rect
           style="display:inline;vector-effect:non-scaling-stroke;fill:#666666;fill-opacity:0.70303;stroke:none;stroke-width:0.676923;-inkscape-stroke:hairline"
           id="pipa_pompa"
           width="222.25795"
           height="10.4"
           x="-210.37871"
           y="6.3949418"
           transform="scale(-1,1)" />
        <rect
           style="vector-effect:non-scaling-stroke;fill:#ffffff;fill-opacity:1;stroke:#000000;stroke-width:0.260675;stroke-linecap:round;stroke-linejoin:round;-inkscape-stroke:hairline"
           id="ring_akrilik"
           width="5"
           height="16.146729"
           x="-138.38261"
           y="3.5216956"
           transform="scale(-1,1)" />
        <g
           id="inlet_valve">
          <path
             id="3d_inlet"
             style="fill:#ff0000;stroke-width:2.36213;stroke-linecap:round;stroke-linejoin:round"
             d="m -13.07442,7.0623701 h 5.7129375 l 1,2.3196116 v 4.3907663 l -1,2.319613 H -13.07442 Z"
             sodipodi:nodetypes="ccccccc" />
          <path
             id="m5_inlet"
             style="fill:#cccccc;stroke-width:1.42001;stroke-linecap:round;stroke-linejoin:round"
             d="m -2.0593058,7.656897 -2.3776327,1.9998779 v 0.014469 H -16.762801 v 3.8121711 h 12.3258625 v 0.01447 l 2.3776327,1.999878 z" />
          <rect
             style="vector-effect:non-scaling-stroke;fill:#000000;fill-opacity:1;stroke:#1a1a1a;stroke-width:0.143298;stroke-linecap:round;stroke-linejoin:round;-inkscape-stroke:hairline"
             id="oring_inlet"
             width="2.5228634"
             height="9.6703024"
             x="-5.9880624"
             y="6.759798"
             rx="1.2614317"
             ry="1.5065098" />
        </g>
        <path
           id="rect6"
           style="fill:#1a1a1a;stroke-width:1.72345;stroke-linecap:round;stroke-linejoin:round"
           d="M 206.34164,3.9077718 V 5.547465 h -8.09718 v 12.094869 h 8.09718 v 1.64021 h 5.84254 V 17.642334 5.547465 3.9077718 Z" />
        <rect
           style="vector-effect:non-scaling-stroke;fill:#ff6600;fill-opacity:1;stroke:#000000;stroke-width:0.438565;stroke-linecap:round;stroke-linejoin:round;-inkscape-stroke:hairline"
           id="selang_pendorong"
           width="30.851938"
           height="7.4069266"
           x="-133.20422"
           y="4.0477009"
           transform="scale(-1,1)" />
      </g>
      <g
         id="full_gagang_pompa">
        <rect
           style="display:inline;vector-effect:non-scaling-stroke;fill:#ececec;fill-opacity:0.70303;stroke:#666666;stroke-width:0.615474;-inkscape-stroke:hairline"
           id="batang_pompa"
           width="252.33812"
           height="7.5726523"
           x="-261.0126"
           y="7.8086152"
           transform="scale(-1,1)" />
        <path
           id="tutup_drat_gagangpompa"
           style="fill:#1a1a1a;stroke-width:1.72345;stroke-linecap:round;stroke-linejoin:round"
           d="m 212.47904,3.9075679 23.77961,1.5 V 17.782315 l -23.77961,1.5 z"
           sodipodi:nodetypes="ccccc" />
        <rect
           style="vector-effect:non-scaling-stroke;fill:#008000;fill-opacity:1;stroke:none;stroke-width:0.264583;stroke-linecap:round;stroke-linejoin:round;-inkscape-stroke:hairline"
           id="handle_pompa"
           width="50.839752"
           height="24.389341"
           x="227.48709"
           y="-0.59976029" />
        <g
           id="piston_pompa"
           transform="translate(-20.920881)">
          <path
             id="3d_piston"
             style="fill:#ff0000;stroke:none;stroke-width:1.82762;stroke-linecap:round;stroke-linejoin:round"
             d="m 19.050517,7.8889242 v 7.4119508 h 1.837614 v -1.837614 h 1.899109 l 2.021445,1.837614 7.90198,-0.5 V 8.3889242 l -7.90198,-0.5 -2.021445,1.8376139 H 20.888131 V 7.8889242 Z"
             sodipodi:nodetypes="ccccccccccccc" />
          <rect
             style="vector-effect:non-scaling-stroke;fill:#4d4d4d;fill-opacity:1;stroke:#1a1a1a;stroke-width:0.143298;stroke-linecap:round;stroke-linejoin:round;-inkscape-stroke:hairline"
             id="oring_piston"
             width="2.5228634"
             height="9.6703024"
             x="21.091139"
             y="6.759798"
             rx="1.2614317"
             ry="1.5065098" />
        </g>
      </g>
      <g
         id="valve_dumping">
        <rect
           style="vector-effect:non-scaling-stroke;fill:#ffffff;fill-opacity:1;stroke:#000000;stroke-width:0.259873;stroke-linecap:round;stroke-linejoin:round;-inkscape-stroke:hairline"
           id="akrilik_valve_ring"
           width="5"
           height="16.047525"
           x="-102.16786"
           y="3.5711789"
           transform="scale(-1,1)" />
        <rect
           style="vector-effect:non-scaling-stroke;fill:#ff0000;fill-opacity:1;stroke:#000000;stroke-width:0.479182;stroke-linecap:round;stroke-linejoin:round;-inkscape-stroke:hairline"
           id="3d_valve_ring"
           width="17"
           height="16.047525"
           x="-97.244644"
           y="3.5711789"
           transform="scale(-1,1)" />
        <rect
           style="vector-effect:non-scaling-stroke;fill:#000000;fill-opacity:1;stroke:#1a1a1a;stroke-width:0.274449;stroke-linecap:round;stroke-linejoin:round;-inkscape-stroke:hairline"
           id="oring_valve_dumping"
           width="5"
           height="17.898239"
           x="75.34169"
           y="2.645822"
           rx="2.5"
           ry="2.7883174" />
      </g>
    </g>
    <ellipse
       style="fill:#ff0000;fill-opacity:0.521951;stroke:#ff0000;stroke-width:0.837238;stroke-linecap:round;stroke-linejoin:round"
       id="bocor_3"
       cx="78.028122"
       cy="11.17355"
       rx="11.088537"
       ry="11.173568"
       inkscape:label="bocor_3" />
    <ellipse
       style="fill:#ffff00;fill-opacity:0.521951;stroke:none;stroke-width:0.837238;stroke-linecap:round;stroke-linejoin:round"
        id="cek_3"
        cx="84.816788"
        cy="-2.8268814"
        rx="11.088537"
        ry="11.173568"
        inkscape:label="cek_3" />
    <ellipse
       style="fill:#ff0000;fill-opacity:0.521951;stroke:#ff0000;stroke-width:0.837238;stroke-linecap:round;stroke-linejoin:round"
       id="bocor_4"
       cx="45.748955"
       cy="25.19647"
       rx="11.088537"
       ry="11.173568"
       inkscape:label="bocor_4" />
    <ellipse
       style="fill:#ffff00;fill-opacity:0.521951;stroke:none;stroke-width:0.837238;stroke-linecap:round;stroke-linejoin:round"
       id="cek_4"
       cx="44.60133"
       cy="37.608692"
       rx="11.088537"
       ry="11.173568"
       inkscape:label="cek_4" />
    <ellipse
       style="fill:#ff0000;fill-opacity:0.521951;stroke:#ff0000;stroke-width:0.837238;stroke-linecap:round;stroke-linejoin:round"
       id="bocor_2"
       cx="-5.674264"
       cy="11.57733"
       rx="11.088537"
       ry="11.173568"
       inkscape:label="bocor_2" />
    <ellipse
       style="fill:#ff0000;fill-opacity:0.521951;stroke:#ff0000;stroke-width:0.837238;stroke-linecap:round;stroke-linejoin:round"
       id="bocor_1"
       cx="-58.716999"
       cy="11.749594"
       rx="11.088537"
       ry="11.173568"
       inkscape:label="bocor_1" />
    <ellipse
       style="fill:#ffff00;fill-opacity:0.521951;stroke:none;stroke-width:0.837238;stroke-linecap:round;stroke-linejoin:round"
       id="cek_1"
       cx="-72.110931"
       cy="11.749594"
       rx="11.088537"
       ry="11.173568"
       inkscape:label="cek_1" />
    <ellipse
       style="fill:#ffff00;fill-opacity:0.521951;stroke:none;stroke-width:0.837238;stroke-linecap:round;stroke-linejoin:round"
       id="cek_2"
       cx="210.37871"
       cy="11.594941"
       rx="11.088537"
       ry="11.173568"
       inkscape:label="cek_2" />
    <text
       xml:space="preserve"
       style="font-size:21.6376px;line-height:1.25;font-family:'Baby Panda';-inkscape-font-specification:'Baby Panda, Normal';display:inline;stroke-width:0.735583"
       x="-96.548332"
       y="-60.724007"
       id="text3"><tspan
         sodipodi:role="line"
         id="tspan3"
         style="stroke-width:0.735583"
         x="-96.548332"
         y="-60.724007">Seri F04</tspan></text>
    <path
       id="angin"
       style="baseline-shift:baseline;display:inline;overflow:visible;opacity:0.0290276;vector-effect:none;fill:#00ffff;enable-background:accumulate;stop-color:#000000"
       d="m 49.083396,-22.338998 -15.014071,6.564457 15.723588,4.613155 c -1.246369,-1.283753 -2.025844,-2.836872 -2.326473,-4.459676 6.242541,-0.370503 13.004153,-0.45379 18.90479,-0.05271 6.1407,0.417398 11.385959,1.427545 13.937133,2.94504 3.775106,2.245518 4.663299,6.06298 4.631242,9.5275838 -0.03206,3.46460391 -1.049031,6.3691202 -1.049031,6.3691203 l 1.886706,0.6640422 c 0,0 1.126626,-3.17047261 1.162203,-7.0155925 0.03558,-3.8451198 -1.084791,-8.5725268 -5.609477,-11.2639118 -3.199197,-1.902954 -8.555328,-2.796557 -14.822351,-3.222542 -3.133511,-0.212992 -6.485921,-0.291762 -9.869165,-0.265617 -3.12205,0.02412 -6.27125,0.138675 -9.300724,0.318843 0.09046,-1.651704 0.668112,-3.292736 1.74563,-4.722192 z" />
    <path
       id="tekanan"
       style="opacity:0.0145138;fill:#ff0000;fill-opacity:0.456884;stroke:none;stroke-width:0;stroke-linecap:round;stroke-linejoin:round;stroke-dasharray:none"
       d="M -55.368813,4.3238029 H -6.1638985 V 18.529406 H -55.368813 Z" />
  </g>
</svg>
