<?xml version="1.0" encoding="UTF-8" standalone="no"?>
<!-- Created with Inkscape (http://www.inkscape.org/) -->

<svg
   width="525.31097mm"
   height="240.06049mm"
   viewBox="0 0 525.31096 240.06049"
   version="1.1"
   id="svg1"
   inkscape:version="1.4.4 (1:1.4.4+202605061432+dcaf3e7d9e)"
   sodipodi:docname="serif03.svg"
   xmlns:inkscape="http://www.inkscape.org/namespaces/inkscape"
   xmlns:sodipodi="http://sodipodi.sourceforge.net/DTD/sodipodi-0.dtd"
   xmlns="http://www.w3.org/2000/svg"
   xmlns:svg="http://www.w3.org/2000/svg">
  <sodipodi:namedview
     id="namedview1"
     pagecolor="#ffffff"
     bordercolor="#90c8ef"
     borderopacity="1"
     inkscape:showpageshadow="2"
     inkscape:pageopacity="0.0"
     inkscape:pagecheckerboard="0"
     inkscape:deskcolor="#ffffff"
     inkscape:document-units="mm"
     showborder="true"
     inkscape:zoom="2.7137544"
     inkscape:cx="1565.3591"
     inkscape:cy="371.80963"
     inkscape:window-width="1920"
     inkscape:window-height="999"
     inkscape:window-x="0"
     inkscape:window-y="0"
     inkscape:window-maximized="1"
     inkscape:current-layer="layer2" />
  <defs
     id="defs1">
    <inkscape:path-effect
       effect="fillet_chamfer"
       id="path-effect2"
       is_visible="true"
       lpeversion="1"
       nodesatellites_param="F,0,0,1,0,0,0,1 @ F,0,0,1,0,0,0,1 @ F,0,1,1,0,4.5217546,0,1 @ F,0,0,1,0,4.5217546,0,1 | F,0,0,1,0,0,0,1 @ F,0,0,1,0,0,0,1 @ F,0,0,1,0,0,0,1 @ F,0,0,1,0,0,0,1"
       radius="0"
       unit="px"
       method="auto"
       mode="F"
       chamfer_steps="1"
       flexible="false"
       use_knot_distance="true"
       apply_no_radius="true"
       apply_with_radius="true"
       only_selected="false"
       hide_knots="false" />
  </defs>
  <g
     inkscape:groupmode="layer"
     id="layer2"
     inkscape:label="Seri F03"
     style="display:inline"
     transform="translate(223.11302,-200.6778)">
    <rect
       style="display:inline;fill:#999999;fill-opacity:0.521951;stroke-width:2.40357;stroke-linecap:round;stroke-linejoin:round"
       id="rect3"
       width="525.31097"
       height="240.06049"
       x="-223.11302"
       y="200.6778" />
    <path
       id="path193"
       style="font-variation-settings:normal;display:inline;opacity:0.895492;vector-effect:non-scaling-stroke;fill:#ff6600;fill-opacity:1;stroke:#000000;stroke-width:0.235651;stroke-linecap:round;stroke-linejoin:round;stroke-miterlimit:4;stroke-dasharray:none;stroke-dashoffset:0;stroke-opacity:0.999227;-inkscape-stroke:hairline;stop-color:#000000"
       d="M 221.99521 309.68613 L 221.99521 317.25156 C 223.35542 321.62936 223.73259 329.17638 222.17763 338.95308 C 221.08132 345.84598 221.61257 350.96738 217.34692 348.73388 C 214.44373 347.21388 214.43348 337.7676 212.30485 337.3847 C 204.15132 335.9178 193.57111 335.61126 181.03234 330.44146 L 176.12669 325.81952 L 171.96312 310.45301 L 60.518763 310.31297 L 61.043279 311.20387 L 46.642607 311.31291 L 46.660694 312.12268 L -56.764001 312.12061 L -56.764001 319.52274 L -56.764001 320.7113 L -56.909211 320.7113 L -56.909211 329.37692 L -54.417891 331.6698 L -49.232677 336.66071 L -45.050504 336.66071 L -44.316698 337.31804 L -35.352388 364.65849 L -34.319376 368.98381 L -31.95828 372.10248 L -17.318863 372.42959 L 8.155551 371.44515 L 13.330429 369.94344 C 14.740733 371.31257 16.162952 372.65232 17.301763 373.94216 C 17.452671 374.11242 17.600855 374.28279 17.742046 374.45066 C 18.086085 374.86742 18.406976 375.28026 18.66447 375.68366 C 19.838631 379.37584 21.181125 380.52465 22.375355 381.25799 C 22.998302 381.6771 23.624913 382.01834 24.143206 382.4295 C 24.547822 382.82199 24.892821 383.35218 25.15348 384.19011 C 25.16228 384.23821 25.170448 384.28731 25.177768 384.33739 C 25.130208 385.16839 25.114077 385.86409 25.189137 386.48765 C 25.242517 387.93889 25.633728 388.9666 26.955437 390.20267 C 28.514107 392.10922 29.270007 392.6837 29.493267 394.91401 C 29.497567 394.99461 29.501872 395.07697 29.505152 395.16154 C 29.538152 396.08444 29.473052 396.99643 29.327902 397.88643 C 29.22389 398.40016 29.269921 398.91237 29.321701 399.47393 C 29.019857 401.66739 28.436028 403.95597 27.604493 405.30355 C 27.217292 406.09061 26.937386 407.44674 27.357996 409.23303 C 27.370286 409.28973 27.384194 409.34562 27.398304 409.40149 C 27.491974 409.76603 27.604256 410.14182 27.762106 410.54044 C 27.780986 410.58814 27.800404 410.63524 27.819984 410.68204 C 28.438053 412.57502 29.774912 413.69456 31.634221 414.25133 C 39.357846 416.93793 55.424793 409.14622 68.911532 406.92516 C 69.331081 406.86286 69.742971 406.8083 70.146599 406.7629 C 70.258139 406.7505 70.363164 406.72473 70.462859 406.69313 C 70.767766 406.65253 71.070759 406.61533 71.372364 406.58151 L 73.393946 403.83749 C 73.481106 401.4235 72.496032 397.18195 70.934148 392.37153 C 69.689656 388.11961 68.034708 383.56632 66.341147 379.59556 C 65.560811 377.52432 64.674617 375.67013 63.718051 373.99435 C 63.119164 372.84864 62.541008 371.84281 62.001877 371.02089 C 61.819407 370.84719 61.638516 370.6756 61.459791 370.50568 C 61.161871 370.09694 60.860606 369.70066 60.556487 369.31557 C 59.58794 367.84893 58.673584 366.70917 57.861561 366.01965 C 51.917225 360.36101 48.40346 356.7332 46.152715 353.69947 C 46.148715 353.68907 46.144313 353.67834 46.140313 353.66794 L 46.132561 353.67208 C 43.23898 349.76326 42.44081 346.8351 41.233119 341.80407 L 40.67863 334.35284 L 40.679664 334.26861 L 40.67863 334.25673 L 40.722555 330.16395 L 39.598593 330.17067 L 39.537615 329.3516 L 49.932846 326.03862 L 69.600379 326.30372 L 102.52912 344.05665 L 146.75743 346.30664 L 182.33768 369.26699 C 192.10758 375.61139 212.11811 365.08881 227.68375 392.29711 C 230.91817 397.95081 231.72706 410.79216 234.74896 415.65176 C 240.05575 424.18576 257.10905 416.95866 268.8368 403.65146 L 265.23598 365.40211 L 268.03219 332.2522 C 268.03219 332.2522 251.61467 328.01913 246.07074 309.68613 L 221.99521 309.68613 z M -33.646032 336.66071 L -26.146231 336.66071 C -20.084329 336.80214 -17.766909 338.92788 -15.812495 340.97931 C -15.641703 342.35479 -15.398755 343.86833 -15.081274 345.55785 C -14.632324 347.94705 -14.779131 351.50516 -15.506571 354.34646 C -16.275261 357.34896 -17.595513 360.57147 -19.575573 362.70667 C -19.908753 362.93837 -20.006289 364.18199 -18.637129 364.22389 C -15.365359 364.29189 -10.475909 360.30707 -8.3214795 355.72467 C -7.6302695 354.25447 -7.2207544 352.7229 -7.2362744 351.2438 C -7.2551334 349.44755 -5.4648115 346.40533 -3.3853467 343.05412 C -2.2340912 342.41703 -0.95006431 341.96771 1.3936898 342.45881 C 3.2992902 342.8305 4.7661994 343.7226 5.8166756 345.03591 C 8.1542313 352.24169 8.5892287 361.26082 7.2357105 362.03384 L 1.9647144 365.04451 L -10.900133 366.53434 L -24.047135 366.02895 C -26.841855 365.77145 -28.826423 364.35611 -29.875203 361.60441 L -34.498693 344.99199 C -35.395012 341.77146 -34.724325 339.08207 -33.646032 336.66071 z " />
    <rect
       style="opacity:1;fill:#666666;fill-opacity:1;stroke:none;stroke-width:2;stroke-linecap:round;stroke-linejoin:round"
       id="rect27"
       width="302.51096"
       height="9.8308315"
       x="-155.20389"
       y="267.37091" />
    <g
       id="g20"
       inkscape:label="body_belakang">
      <path
         id="path174-97-7-4"
         style="vector-effect:non-scaling-stroke;fill:#88aa00;stroke:#000000;stroke-width:0.32811;stroke-linecap:round;stroke-linejoin:round;-inkscape-stroke:hairline"
         d="m 165.8914,334.56594 c -1.8865,-2.3603 -7.2984,-8.4997 -8.0681,-10.683 l -1.9152,-7.1779 c 0.023,-1.0463 -0.3687,-3.6182 -2.4272,-3.9181 h -8.4718 l -8.5531,-3e-4 v 15.9711 l 13.8353,11.3456 c 18.6079,13.8008 39.0805,9.7801 46.0877,11.1578 0.5496,0.1081 1.2581,-0.01 1.4665,-0.2196 2.5786,-2.7676 6.4362,-1.0695 7.9308,0.085 l 1.2925,0.6718 13.1516,-0.7679 v -19.2732 -16.5908 c 0,-1.3187 -1.0615,-2.3802 -2.3802,-2.3802 h -22.1206 c -0.2959,0 -0.5757,0.06 -0.8367,0.1582 -0.6149,0.4176 -1.0866,0.9339 -1.4278,1.5218 -0.3156,3.9817 -0.1158,3.0643 -0.1158,7.0719 8.7441,8.502 17.4085,-8.4222 12.5791,19.3151 -0.4548,2.6121 -6.8297,-0.7004 -9.7007,-0.6077 -4.9487,0.1598 -13.497,-2.6094 -14.0729,0.5567 l -0.7504,7.4507 -16.1985,-4.4104 c 0,0 1.0984,-8.7727 0.6955,-9.2768 z"
         sodipodi:nodetypes="scccccccscccccssscccsscccss" />
      <path
         id="path339-3"
         style="vector-effect:non-scaling-stroke;fill:#88aa00;stroke:#000000;stroke-width:0.264583;stroke-dasharray:none;-inkscape-stroke:hairline"
         d="m 161.2842,309.84374 -3.8708,3 h -14.9158 l 5.2488,15.3663 6.4646,4.6221 h 13.2621 c 0.8247,-3.8034 3.0056,-2.9102 5.9163,-0.364 2.6032,2.2773 6.3858,4.7064 10.8634,4.3302 0.3218,0.055 0.6473,0.083 0.9736,0.085 3.5534,0.1 7.3431,-4.5927 6.7666,-8.0154 -0.5458,-2.6023 2.3695,-1.8222 3.2239,-0.49 0.4991,0.7782 1.2393,1.0665 1.2393,1.0665 l 9.2579,-3.667 0.049,-12.9341 h -12.8715 l -1.2196,-3 z"
         sodipodi:nodetypes="ccccccscccscccccc" />
      <path
         style="fill:#88aa00;stroke-width:1.09429"
         d="m 147.5136,322.1062 c -4.5173,-3.41807 -4.609,-3.49967 -9.9067,-8.82112 l -5.3471,-5.37113 V 286.1625 264.41105 l 1.8973,-1.57948 1.8971,-1.5795 h 7.9735 c 8.651,0 53.4249,3.15027 59.5654,3.15027 h 5.4312 l 0.4572,0.52993 c 0.2515,0.29147 0.7229,0.8324 1.0476,1.20208 0.3246,0.36968 1.0707,1.25635 1.658,1.97038 1.6972,2.06355 2.352,2.85391 3.0004,3.62145 0.5911,0.69977 1.0687,1.6891 2.8677,5.94045 1.0036,2.37135 1.4194,3.32592 3.1059,7.12954 l 1.213,2.73576 0.045,12.92717 0.045,12.92717 -6.0987,6.09879 -6.0988,6.09877 -29.0961,-0.0138 -29.0959,-0.0138 z m 58.974,-4.34403 c 0.8291,-0.77894 0.2919,-2.12655 -0.8478,-2.12655 -0.6424,0 -1.2556,0.60716 -1.2556,1.24353 0,1.06415 1.3205,1.6185 2.1034,0.88302 z m -53.4119,-0.70967 c 0.2238,-0.22384 0.4069,-0.6003 0.4069,-0.83656 0,-0.50931 -0.6762,-1.24353 -1.1452,-1.24353 -1.056,0 -1.7198,0.93258 -1.2755,1.79183 0.4223,0.81645 1.3524,0.94959 2.0138,0.28826 z m 24.1048,-15.11802 c 0.4558,-0.57953 0.4341,-1.14586 -0.063,-1.64322 -0.4974,-0.49735 -1.0637,-0.51919 -1.6432,-0.0634 -0.5474,0.43059 -0.5989,1.3181 -0.1051,1.8118 0.4938,0.49371 1.3813,0.44215 1.8119,-0.10527 z m 18.435,0.26098 c 0.8098,-0.43335 0.687,-1.78435 -0.1953,-2.14982 -0.9536,-0.39496 -1.8133,0.33242 -1.671,1.41378 0.097,0.73751 1.1141,1.13862 1.8663,0.73604 z m -55.7379,-25.30101 c 0.8024,-1.02009 -0.5681,-2.29832 -1.4831,-1.38328 -0.6521,0.65211 -0.1805,1.82384 0.734,1.82384 0.2383,0 0.544,-0.17985 0.7491,-0.44056 z m 64.5481,-6.05855 c 0.5178,-0.5988 0.3441,-1.33733 -0.4057,-1.72509 -0.4428,-0.22892 -0.5295,-0.22749 -0.8992,0.0148 -0.5364,0.35145 -0.7634,0.96036 -0.5587,1.49881 0.2929,0.77015 1.2834,0.88254 1.8636,0.21148 z"
         id="path536"
         sodipodi:nodetypes="cscccccsscsssscsccccccccssssssscsccssccsssscsscssccs" />
    </g>
    <path
       id="trigger"
       style="display:inline;vector-effect:non-scaling-stroke;fill:#ffffff;fill-opacity:1;stroke:#000000;stroke-width:3.20913;-inkscape-stroke:hairline"
       inkscape:transform-center-x="-1.2966519"
       inkscape:transform-center-y="-1.1083962"
       d="m 179.8093,318.30274 c -5.3633,0.15124 -11.2763,8.56131 -5.9216,14.5154 l 3.6478,0.80667 0.848,0.85886 0.1075,2.22364 c 0.1088,0.0658 0.8045,0.33945 0.924,0.32142 0.7104,-0.10691 3.8442,0.0282 4.6809,0.10232 6.4271,1.52851 14.4865,5.68351 18.4557,2.76004 1.6586,-1.22152 -0.8209,-6.24747 -3.4102,-3.94033 -1.7133,1.52662 -4.0549,-2.85329 -6.8393,-4.80229 -2.406,-1.68422 -4.6272,-3.76956 -5.9025,-5.79603 -0.6394,-1.016 -0.086,-2.2737 0.123,-3.51451 0.08,-0.47213 -0.1009,-1.0789 -0.4956,-1.23558 -0.4591,-0.18236 -0.9079,-0.27697 -1.4397,-0.30696 -0.222,-0.0126 -0.5224,-0.12907 -0.6733,-0.29197 -0.302,-0.41452 -0.2672,-0.37447 -0.4982,-0.68627 -0.5563,-0.35198 -1.8754,-0.9868 -2.7166,-1.00975 h -6e-4 l -0.3725,0.007 c -0.1715,-0.0127 -0.3438,-0.0168 -0.5168,-0.0119 z m 4.1424,10.37508 c 0.5054,0.004 0.9979,0.25492 1.2965,0.70952 0.4809,0.72393 0.2759,1.70294 -0.4511,2.18074 -0.7248,0.48032 -1.7038,0.27536 -2.1818,-0.45216 -0.4809,-0.72383 -0.2751,-1.70365 0.4517,-2.18075 0.2749,-0.1755 0.5808,-0.26237 0.8847,-0.25735 z m 16.0109,8.56537 c 0.8882,-0.0175 0.992,0.0932 1.2976,0.33073 0.2805,0.21815 0.6537,1.87299 -1.3705,1.6893 -1.1637,-0.10551 -0.793,-2.00216 0.073,-2.02003 z"
       inkscape:label="picu_bulpup" />
    <g
       id="g7"
       inkscape:label="main_pipa"
       transform="matrix(1.3309996,0,0,1,-81.040818,0)">
      <rect
         style="display:inline;vector-effect:non-scaling-stroke;fill:#008000;fill-opacity:1;stroke:#00ff00;stroke-width:0.792289;-inkscape-stroke:hairline"
         id="rect10"
         width="244.5809"
         height="25.234856"
         x="-244.82484"
         y="286.88565"
         transform="scale(-1,1)" />
      <rect
         style="display:inline;vector-effect:non-scaling-stroke;fill:#99ff55;fill-opacity:1;stroke:#00ff00;stroke-width:0.608376;-inkscape-stroke:hairline"
         id="rect11"
         width="244.59285"
         height="16.455555"
         x="-244.83656"
         y="291.27518"
         transform="scale(-1,1)" />
    </g>
    <circle
       style="display:inline;fill:#000080;fill-opacity:1;stroke:none;stroke-width:1.14871;stroke-linecap:round;stroke-linejoin:round"
       id="paku3"
       cx="234.92477"
       cy="299.52148"
       r="1.25"
       inkscape:label="pasak_valve" />
    <g
       id="manometer-0"
       style="display:inline"
       transform="translate(64.513391,289.28718)"
       inkscape:label="manometer">
      <rect
         style="font-variation-settings:normal;vector-effect:non-scaling-stroke;fill:#008000;fill-opacity:1;fill-rule:evenodd;stroke:none;stroke-width:0.337184;stroke-linecap:round;stroke-linejoin:round;stroke-miterlimit:4;stroke-dasharray:none;stroke-dashoffset:0;stroke-opacity:1;-inkscape-stroke:hairline;stop-color:#000000"
         id="lubang_manometer-8"
         width="12.148543"
         height="10.653667"
         x="39.562149"
         y="20.189608" />
      <rect
         style="font-variation-settings:normal;vector-effect:non-scaling-stroke;fill:#ffffff;fill-opacity:1;fill-rule:evenodd;stroke:none;stroke-width:0.264583;stroke-linecap:round;stroke-linejoin:round;stroke-miterlimit:4;stroke-dasharray:none;stroke-dashoffset:0;stroke-opacity:1;-inkscape-stroke:hairline;stop-color:#000000"
         id="rect521-8"
         width="7.4802346"
         height="10.653667"
         x="41.896255"
         y="20.189608" />
      <circle
         style="fill:#ffffff;fill-opacity:1;stroke:#ff0000;stroke-width:2;stroke-linecap:round;stroke-linejoin:round;stroke-dasharray:none"
         id="circle521-5"
         cx="45.199356"
         cy="40.605377"
         r="14.838552" />
      <circle
         style="fill:#ffffff;fill-opacity:1;stroke:#ff0000;stroke-width:2;stroke-linecap:round;stroke-linejoin:round;stroke-dasharray:none"
         id="mano_apar-0"
         cx="45.199356"
         cy="40.605377"
         r="14.838552" />
      <rect
         style="vector-effect:non-scaling-stroke;fill:#000000;fill-opacity:1;stroke:#1a1a1a;stroke-width:0.143298;stroke-linecap:round;stroke-linejoin:round;-inkscape-stroke:hairline"
         id="oring_drat_manometer-9"
         width="2.5228634"
         height="9.6703024"
         x="18.76638"
         y="-50.297737"
         rx="1.2614317"
         ry="1.5065098"
         transform="rotate(90)" />
    </g>
    <path
       style="display:inline;opacity:0.557078;vector-effect:non-scaling-stroke;fill:none;stroke:#000000;stroke-width:0.312363;-inkscape-stroke:hairline"
       d="m 162.5615,314.44027 c 0.1022,0 0.2073,-0.01 0.3138,-0.011 0.8538,0.062 1.494,0.8075 1.4308,1.6638 -0.064,0.8551 -0.8054,1.4956 -1.6592,1.4333 -0.8537,-0.062 -1.495,-0.8077 -1.4321,-1.6626 0.056,-0.7489 0.6314,-1.3342 1.3466,-1.4272 z"
       id="path465"
       inkscape:export-filename="path21-2-2.svg"
       inkscape:export-xdpi="96"
       inkscape:export-ydpi="96"
       inkscape:transform-center-x="35.652746"
       inkscape:transform-center-y="-0.96046492" />
    <path
       id="sear"
       style="vector-effect:non-scaling-stroke;fill:#ffffff;fill-opacity:1;stroke:#000000;stroke-width:1.17575;-inkscape-stroke:hairline"
       inkscape:transform-center-x="-9.8008902"
       inkscape:transform-center-y="-2.3543811"
       d="m 182.3517,304.76957 -3.9744,0.303 c -0.3921,0.05 -0.4446,0.8453 -0.4577,1.2065 -0.022,0.6029 -0.1712,2.1536 -0.5653,2.5457 -1.308,1.3009 -6.7136,1.8197 -9.2449,1.8132 -19.0407,-0.048 -11.7742,12.0816 -6.8674,12.1964 3.7617,0.088 5.2209,-1.0429 7.246,-1.6335 14.0695,-4.1031 12.0827,-6.022 15.4235,-1.4164 0.1504,0.1633 0.4502,0.2915 0.6726,0.294 0.6255,0.01 1.2473,0.072 1.8573,0.193 0.7805,0.1546 2.0702,-0.7676 2.6567,-1.2924 0.9502,-2.4567 1.2033,-4.8262 0.073,-7.9026 -1.5016,-1.963 -4.6438,-6.3489 -5.8712,-6.3627 z m -19.7796,9.6816 c 0.1022,0 0.2073,-0.01 0.3138,-0.011 0.8537,0.063 1.4935,0.8084 1.4298,1.6646 -0.065,0.8551 -0.8063,1.4952 -1.66,1.4324 -0.8537,-0.063 -1.4945,-0.8086 -1.4311,-1.6635 0.056,-0.7488 0.6322,-1.3338 1.3474,-1.4263 z"
       inkscape:label="sear" />
    <rect
       style="font-variation-settings:normal;vector-effect:non-scaling-stroke;fill:#ffffff;fill-opacity:1;fill-rule:evenodd;stroke:none;stroke-width:0.264583;stroke-linecap:round;stroke-linejoin:round;stroke-miterlimit:4;stroke-dasharray:none;stroke-dashoffset:0;stroke-opacity:1;-inkscape-stroke:hairline;stop-color:#000000"
       id="rect491"
       width="7.4802346"
       height="10.653667"
       x="157.22108"
       y="279.7543"
       inkscape:label="transfer_angin" />
    <g
       id="pompa"
       style="display:inline"
       transform="matrix(-1,0,0,1,80.449936,287.90802)">
      <g
         id="full_gagang_pompa">
        <rect
           style="display:inline;vector-effect:non-scaling-stroke;fill:#ececec;fill-opacity:0.70303;stroke:#666666;stroke-width:0.591029;-inkscape-stroke:hairline"
           id="batang_pompa-7"
           width="232.69199"
           height="7.5726523"
           x="-261.0126"
           y="7.8086152"
           transform="scale(-1,1)" />
        <path
           id="tutup_drat_gagangpompa-7"
           style="fill:#1a1a1a;stroke-width:1.72345;stroke-linecap:round;stroke-linejoin:round"
           d="m 212.47904,3.9075679 23.77961,1.5 V 17.782315 l -23.77961,1.5 z"
           sodipodi:nodetypes="ccccc" />
        <rect
           style="vector-effect:non-scaling-stroke;fill:#008000;fill-opacity:1;stroke:none;stroke-width:0.264583;stroke-linecap:round;stroke-linejoin:round;-inkscape-stroke:hairline"
           id="handle_pompa-1"
           width="50.839752"
           height="24.389341"
           x="234.98561"
           y="-0.59976029" />
        <g
           id="piston_pompa-1">
          <path
             id="3d_piston-5"
             style="fill:#ff0000;stroke:none;stroke-width:1.82762;stroke-linecap:round;stroke-linejoin:round"
             d="m 19.050517,7.8889242 v 7.4119508 h 1.837614 v -1.837614 h 1.899109 l 2.021445,1.837614 7.90198,-0.5 V 8.3889242 l -7.90198,-0.5 -2.021445,1.8376139 H 20.888131 V 7.8889242 Z"
             sodipodi:nodetypes="ccccccccccccc" />
          <rect
             style="vector-effect:non-scaling-stroke;fill:#4d4d4d;fill-opacity:1;stroke:#1a1a1a;stroke-width:0.143298;stroke-linecap:round;stroke-linejoin:round;-inkscape-stroke:hairline"
             id="oring_piston-9"
             width="2.5228634"
             height="9.6703024"
             x="21.091139"
             y="6.759798"
             rx="1.2614317"
             ry="1.5065098" />
        </g>
      </g>
      <g
         id="full_body_pompa">
        <rect
           style="display:inline;vector-effect:non-scaling-stroke;fill:#666666;fill-opacity:0.70303;stroke:none;stroke-width:0.676923;-inkscape-stroke:hairline"
           id="pipa_pompa-7"
           width="222.25795"
           height="10.4"
           x="-210.37871"
           y="6.3949418"
           transform="scale(-1,1)" />
        <rect
           style="vector-effect:non-scaling-stroke;fill:#ffffff;fill-opacity:1;stroke:#000000;stroke-width:0.260675;stroke-linecap:round;stroke-linejoin:round;-inkscape-stroke:hairline"
           id="ring1"
           width="5"
           height="16.146729"
           x="-155.28053"
           y="3.5216956"
           transform="scale(-1,1)" />
        <g
           id="inlet_valve-7">
          <path
             id="3d_inlet-3"
             style="fill:#ff0000;stroke-width:2.36213;stroke-linecap:round;stroke-linejoin:round"
             d="m -13.07442,7.0623701 h 5.7129375 l 1,2.3196116 v 4.3907663 l -1,2.319613 H -13.07442 Z"
             sodipodi:nodetypes="ccccccc" />
          <path
             id="m5_inlet-6"
             style="fill:#cccccc;stroke-width:1.42001;stroke-linecap:round;stroke-linejoin:round"
             d="m -2.0593058,7.656897 -2.3776327,1.9998779 v 0.014469 H -16.762801 v 3.8121711 h 12.3258625 v 0.01447 l 2.3776327,1.999878 z" />
          <rect
             style="vector-effect:non-scaling-stroke;fill:#000000;fill-opacity:1;stroke:#1a1a1a;stroke-width:0.143298;stroke-linecap:round;stroke-linejoin:round;-inkscape-stroke:hairline"
             id="oring_inlet-5"
             width="2.5228634"
             height="9.6703024"
             x="-5.9880624"
             y="6.759798"
             rx="1.2614317"
             ry="1.5065098" />
        </g>
        <path
           id="rect6-6"
           style="fill:#1a1a1a;stroke-width:1.72345;stroke-linecap:round;stroke-linejoin:round"
           d="M 206.34164,3.9077718 V 5.547465 h -8.09718 v 12.094869 h 8.09718 v 1.64021 h 5.84254 V 17.642334 5.547465 3.9077718 Z" />
        <rect
           style="vector-effect:non-scaling-stroke;fill:#484537;fill-opacity:1;stroke:#000000;stroke-width:0.763195;stroke-linecap:round;stroke-linejoin:round;-inkscape-stroke:hairline"
           id="spacer"
           width="45.846466"
           height="15.094481"
           x="-150.09621"
           y="4.0477009"
           transform="scale(-1,1)"
           inkscape:label="pipa_spacer" />
        <rect
           style="vector-effect:non-scaling-stroke;fill:#000000;fill-opacity:1;stroke:#000000;stroke-width:0.260675;stroke-linecap:round;stroke-linejoin:round;-inkscape-stroke:hairline"
           id="oringsumbat"
           width="5"
           height="16.146729"
           x="-59.681068"
           y="3.5216956"
           transform="scale(-1,1)"
           rx="2.5"
           ry="2.5"
           inkscape:label="oring_tutupdepan" />
        <rect
           style="vector-effect:non-scaling-stroke;fill:#999999;fill-opacity:1;stroke:#000000;stroke-width:0.647378;stroke-linecap:round;stroke-linejoin:round;-inkscape-stroke:hairline"
           id="spaceralmu"
           width="39.16893"
           height="12.712414"
           x="-98.694717"
           y="5.2387347"
           transform="scale(-1,1)"
           inkscape:label="pipa_spacer" />
        <rect
           style="vector-effect:non-scaling-stroke;fill:#ffffff;fill-opacity:1;stroke:#000000;stroke-width:0.260675;stroke-linecap:round;stroke-linejoin:round;-inkscape-stroke:hairline"
           id="ring2"
           width="5"
           height="16.146729"
           x="-104.18963"
           y="3.5216956"
           transform="scale(-1,1)" />
      </g>
    </g>
    <g
       id="valve_f03"
       inkscape:label="valve_f03">
      <rect
         style="display:inline;vector-effect:non-scaling-stroke;fill:#666666;fill-opacity:0.70303;stroke:none;stroke-width:0.399853;-inkscape-stroke:hairline"
         id="rect486"
         width="77.549561"
         height="10.4"
         x="-213.59169"
         y="294.30295"
         transform="scale(-1,1)"
         inkscape:label="batang_valve" />
      <rect
         style="vector-effect:non-scaling-stroke;fill:#000000;fill-opacity:1;stroke:#1a1a1a;stroke-width:0.297619;stroke-linecap:round;stroke-linejoin:round;-inkscape-stroke:hairline"
         id="rect524"
         width="9.2441339"
         height="11.384419"
         x="131.42006"
         y="293.81076"
         rx="4.622067"
         ry="4.622067"
         inkscape:label="sumbat_valve" />
      <path
         id="rect525"
         style="display:inline;vector-effect:non-scaling-stroke;fill:#ff0000;fill-opacity:1;stroke:none;stroke-width:0.427115;-inkscape-stroke:hairline"
         d="m 206.7094,290.64087 v 17.72398 l 33.59369,0 a 4.5217546,4.5217546 135 0 0 4.52175,-4.52175 l 0,-8.68048 a 4.5217546,4.5217546 45 0 0 -4.52175,-4.52175 z m 11.43474,6.68589 h 19.1324 v 4.35271 h -19.1324 z"
         inkscape:label="3d_pendorong"
         sodipodi:nodetypes="cccccccccc"
         inkscape:path-effect="#path-effect2"
         inkscape:original-d="m 206.7094,290.64087 v 17.72398 h 38.11544 v -17.72398 z m 11.43474,6.68589 h 19.1324 v 4.35271 h -19.1324 z" />
      <rect
         style="vector-effect:non-scaling-stroke;fill:#ff6600;fill-opacity:1;stroke:#000000;stroke-width:0.418631;stroke-linecap:round;stroke-linejoin:round;-inkscape-stroke:hairline"
         id="rect531"
         width="28.111084"
         height="7.4069266"
         x="-206.60782"
         y="291.99344"
         transform="scale(-1,1)"
         inkscape:label="selang_pendorong" />
      <g
         id="valve_dumping"
         style="display:inline"
         transform="translate(75.610424,288.38454)">
        <rect
           style="vector-effect:non-scaling-stroke;fill:#ffffff;fill-opacity:1;stroke:#000000;stroke-width:0.259873;stroke-linecap:round;stroke-linejoin:round;-inkscape-stroke:hairline"
           id="akrilik_valve_ring-4"
           width="5"
           height="16.047525"
           x="-102.16786"
           y="3.5711789"
           transform="scale(-1,1)" />
        <rect
           style="vector-effect:non-scaling-stroke;fill:#ff0000;fill-opacity:1;stroke:#000000;stroke-width:0.479182;stroke-linecap:round;stroke-linejoin:round;-inkscape-stroke:hairline"
           id="3d_valve_ring-8"
           width="17"
           height="16.047525"
           x="-97.244644"
           y="3.5711789"
           transform="scale(-1,1)" />
        <rect
           style="vector-effect:non-scaling-stroke;fill:#000000;fill-opacity:1;stroke:#1a1a1a;stroke-width:0.274449;stroke-linecap:round;stroke-linejoin:round;-inkscape-stroke:hairline"
           id="oring_valve_dumping-1"
           width="5"
           height="17.898239"
           x="75.34169"
           y="2.645822"
           rx="2.5"
           ry="2.7883174" />
      </g>
    </g>
    <circle
       style="display:inline;fill:#000080;fill-opacity:1;stroke:none;stroke-width:1.74019;stroke-linecap:round;stroke-linejoin:round"
       id="pasak1"
       cx="-76.114456"
       cy="292.55295"
       r="1.25"
       inkscape:label="pasak2" />
    <circle
       style="display:inline;fill:#000080;fill-opacity:1;stroke:none;stroke-width:1.74019;stroke-linecap:round;stroke-linejoin:round"
       id="pasak2"
       cx="-76.114456"
       cy="306.19946"
       r="1.25"
       inkscape:label="pasak1" />
    <ellipse
       style="fill:#ff0000;fill-opacity:0.521951;stroke:#ff0000;stroke-width:2;stroke-linecap:round;stroke-linejoin:round;stroke-dasharray:none"
       id="path21"
       cx="23.388132"
       cy="298.18466"
       rx="11.088537"
       ry="11.173568"
       inkscape:label="bocor_1" />
    <ellipse
       style="fill:#ffff00;fill-opacity:0.521951;stroke:none;stroke-width:0.837238;stroke-linecap:round;stroke-linejoin:round"
       id="ellipse21"
       cx="-85.297234"
       cy="299.50308"
       rx="11.088537"
       ry="11.173568"
       inkscape:label="cek_1" />
    <ellipse
       style="fill:#ff0000;fill-opacity:0.521951;stroke:#ff0000;stroke-width:0.837238;stroke-linecap:round;stroke-linejoin:round"
       id="ellipse22"
       cx="88.833382"
       cy="299.50308"
       rx="11.088537"
       ry="11.173568"
       inkscape:label="bocor_2" />
    <ellipse
       style="fill:#ffff00;fill-opacity:0.521951;stroke:none;stroke-width:0.837238;stroke-linecap:round;stroke-linejoin:round"
       id="ellipse23"
       cx="-128.61534"
       cy="299.50308"
       rx="11.088537"
       ry="11.173568"
       inkscape:label="cek_2" />
    <ellipse
       style="fill:#ff0000;fill-opacity:0.521951;stroke:#ff0000;stroke-width:0.837238;stroke-linecap:round;stroke-linejoin:round"
       id="ellipse24"
       cx="152.6718"
       cy="299.50308"
       rx="11.088537"
       ry="11.173568"
       inkscape:label="bocor_3" />
    <ellipse
       style="fill:#ffff00;fill-opacity:0.521951;stroke:none;stroke-width:0.837238;stroke-linecap:round;stroke-linejoin:round"
       id="ellipse25"
       cx="162.76047"
       cy="282.25647"
       rx="11.088537"
       ry="11.173568"
       inkscape:label="cek_3" />
    <ellipse
       style="fill:#ff0000;fill-opacity:0.521951;stroke:#ff0000;stroke-width:0.837238;stroke-linecap:round;stroke-linejoin:round"
       id="ellipse26"
       cx="110.14977"
       cy="314.80362"
       rx="11.088537"
       ry="11.173568"
       inkscape:label="bocor_4" />
    <ellipse
       style="fill:#ffff00;fill-opacity:0.521951;stroke:none;stroke-width:0.837238;stroke-linecap:round;stroke-linejoin:round"
       id="ellipse27"
       cx="110.14977"
       cy="326.99911"
       rx="11.088537"
       ry="11.173568"
       inkscape:label="cek_4" />
    <text
       xml:space="preserve"
       style="font-size:21.6376px;line-height:1.25;font-family:'Baby Panda';-inkscape-font-specification:'Baby Panda, Normal';display:inline;stroke-width:0.735583"
       x="-186.55511"
       y="230.7061"
       id="text3"><tspan
         sodipodi:role="line"
         id="tspan3"
         style="stroke-width:0.735583"
         x="-186.55511"
         y="230.7061">Seri F04</tspan></text>
    <path
       id="angin"
       style="baseline-shift:baseline;display:inline;overflow:visible;opacity:0.0290276;vector-effect:none;fill:#00ffff;enable-background:accumulate;stop-color:#000000"
       d="m 125.43269,265.16706 -15.01407,6.56446 15.72359,4.61315 c -1.24637,-1.28375 -2.02585,-2.83687 -2.32648,-4.45967 6.24254,-0.37051 13.00416,-0.45379 18.90479,-0.0527 6.1407,0.4174 11.38596,1.42754 13.93714,2.94504 3.7751,2.24552 4.66329,6.06298 4.63124,9.52758 -0.0321,3.46461 -1.04903,6.36912 -1.04903,6.36912 l 1.8867,0.66404 c 0,0 1.12663,-3.17047 1.16221,-7.01559 0.0356,-3.84512 -1.08479,-8.57253 -5.60948,-11.26391 -3.1992,-1.90295 -8.55533,-2.79656 -14.82235,-3.22254 -3.13351,-0.21299 -6.48592,-0.29176 -9.86917,-0.26562 -3.12205,0.0241 -6.27125,0.13868 -9.30072,0.31884 0.0905,-1.6517 0.66811,-3.29273 1.74563,-4.72219 z" />
    <path
       id="tekanan"
       style="display:inline;opacity:0.0145138;fill:#ff0000;fill-opacity:0.456884;stroke:none;stroke-width:0;stroke-linecap:round;stroke-linejoin:round;stroke-dasharray:none"
       d="m 89.71934,292.51097 h 49.20492 v 14.20561 H 89.71934 Z" />
  </g>
</svg>
