<?xml version="1.0" encoding="UTF-8" standalone="no"?>
<!-- Created with Inkscape (http://www.inkscape.org/) -->

<svg
   width="525.31097mm"
   height="240.06049mm"
   viewBox="0 0 525.31096 240.06049"
   version="1.1"
   id="svg1"
   inkscape:version="1.4.4 (1:1.4.4+202605061432+dcaf3e7d9e)"
   sodipodi:docname="serif03.svg"
   xmlns:inkscape="http://www.inkscape.org/namespaces/inkscape"
   xmlns:sodipodi="http://sodipodi.sourceforge.net/DTD/sodipodi-0.dtd"
   xmlns="http://www.w3.org/2000/svg"
   xmlns:svg="http://www.w3.org/2000/svg">
  <sodipodi:namedview
     id="namedview1"
     pagecolor="#ffffff"
     bordercolor="#90c8ef"
     borderopacity="1"
     inkscape:showpageshadow="2"
     inkscape:pageopacity="0.0"
     inkscape:pagecheckerboard="0"
     inkscape:deskcolor="#ffffff"
     inkscape:document-units="mm"
     showborder="true"
     inkscape:zoom="2.2935948"
     inkscape:cx="757.32644"
     inkscape:cy="340.9495"
     inkscape:window-width="1920"
     inkscape:window-height="999"
     inkscape:window-x="0"
     inkscape:window-y="0"
     inkscape:window-maximized="1"
     inkscape:current-layer="pompa" />
  <defs
     id="defs1">
    <inkscape:path-effect
       effect="fillet_chamfer"
       id="path-effect2"
       is_visible="true"
       lpeversion="1"
       nodesatellites_param="F,0,0,1,0,0,0,1 @ F,0,0,1,0,0,0,1 @ F,0,1,1,0,4.5217546,0,1 @ F,0,0,1,0,4.5217546,0,1 | F,0,0,1,0,0,0,1 @ F,0,0,1,0,0,0,1 @ F,0,0,1,0,0,0,1 @ F,0,0,1,0,0,0,1"
       radius="0"
       unit="px"
       method="auto"
       mode="F"
       chamfer_steps="1"
       flexible="false"
       use_knot_distance="true"
       apply_no_radius="true"
       apply_with_radius="true"
       only_selected="false"
       hide_knots="false" />
  </defs>
  <g
     inkscape:groupmode="layer"
     id="layer2"
     inkscape:label="Seri F03"
     style="display:inline"
     transform="translate(223.11302,-200.6778)">
    <rect
       style="display:inline;fill:#decd87;fill-opacity:1;stroke-width:2.40357;stroke-linecap:round;stroke-linejoin:round"
       id="rect3"
       width="525.31097"
       height="240.06049"
       x="-223.11302"
       y="200.6778"
       sodipodi:insensitive="true" />
    <rect
       style="opacity:1;fill:#666666;fill-opacity:1;stroke:none;stroke-width:0.736729;stroke-linecap:round;stroke-linejoin:round"
       id="rect1"
       width="19.69672"
       height="20.487698"
       x="-45.308022"
       y="267.37091" />
    <path
       id="path193"
       style="font-variation-settings:normal;display:inline;opacity:0.895492;vector-effect:non-scaling-stroke;fill:#ff6600;fill-opacity:1;stroke:#000000;stroke-width:0.235651;stroke-linecap:round;stroke-linejoin:round;stroke-miterlimit:4;stroke-dasharray:none;stroke-dashoffset:0;stroke-opacity:0.999227;-inkscape-stroke:hairline;stop-color:#000000"
       d="m 221.99521,309.68613 v 7.56543 c 1.36021,4.3778 1.73738,11.92482 0.18242,21.70152 -1.09631,6.8929 -0.56506,12.0143 -4.83071,9.7808 -2.90319,-1.52 -2.91344,-10.96628 -5.04207,-11.34918 -8.15353,-1.4669 -18.73374,-1.77344 -31.27251,-6.94324 l -4.90565,-4.62194 -4.16357,-15.36651 -111.444357,-0.14004 0.524516,0.8909 -14.400672,0.10904 0.01809,0.80977 -103.424695,-0.002 v 7.40213 1.18856 h -0.14521 v 8.66562 l 2.49132,2.29288 5.185214,4.99091 h 4.182173 l 0.733806,0.65733 8.96431,27.34045 1.033012,4.32532 2.361096,3.11867 14.639417,0.32711 25.474414,-0.98444 5.174878,-1.50171 c 1.410304,1.36913 2.832523,2.70888 3.971334,3.99872 0.150908,0.17026 0.299092,0.34063 0.440283,0.5085 0.344039,0.41676 0.66493,0.8296 0.922424,1.233 1.174161,3.69218 2.516655,4.84099 3.710885,5.57433 0.622947,0.41911 1.249558,0.76035 1.767851,1.17151 0.404616,0.39249 0.749615,0.92268 1.010274,1.76061 0.0088,0.0481 0.01697,0.0972 0.02429,0.14728 -0.04756,0.831 -0.06369,1.5267 0.01137,2.15026 0.05338,1.45124 0.444591,2.47895 1.7663,3.71502 1.55867,1.90655 2.31457,2.48103 2.53783,4.71134 0.0043,0.0806 0.0086,0.16296 0.01188,0.24753 0.033,0.9229 -0.0321,1.83489 -0.17725,2.72489 -0.104012,0.51373 -0.05798,1.02594 -0.0062,1.5875 -0.301844,2.19346 -0.885673,4.48204 -1.717208,5.82962 -0.387201,0.78706 -0.667107,2.14319 -0.246497,3.92948 0.01229,0.0567 0.0262,0.11259 0.04031,0.16846 0.09367,0.36454 0.205952,0.74033 0.363802,1.13895 0.01888,0.0477 0.0383,0.0948 0.05788,0.1416 0.618069,1.89298 1.954928,3.01252 3.814237,3.56929 7.723625,2.6866 23.790572,-5.10511 37.277311,-7.32617 0.419549,-0.0623 0.831439,-0.11686 1.235067,-0.16226 0.11154,-0.0124 0.216565,-0.0382 0.31626,-0.0698 0.304907,-0.0406 0.6079,-0.0778 0.909505,-0.11162 l 2.021582,-2.74402 c 0.08716,-2.41399 -0.897914,-6.65554 -2.459798,-11.46596 -1.244492,-4.25192 -2.89944,-8.80521 -4.593001,-12.77597 -0.780336,-2.07124 -1.66653,-3.92543 -2.623096,-5.60121 -0.598887,-1.14571 -1.177043,-2.15154 -1.716174,-2.97346 -0.18247,-0.1737 -0.363361,-0.34529 -0.542086,-0.51521 -0.29792,-0.40874 -0.599185,-0.80502 -0.903304,-1.19011 -0.968547,-1.46664 -1.882903,-2.6064 -2.694926,-3.29592 -5.944336,-5.65864 -9.458101,-9.28645 -11.708846,-12.32018 -0.004,-0.0104 -0.0084,-0.0211 -0.0124,-0.0315 l -0.0078,0.004 C 43.23898,349.76326 42.44081,346.8351 41.233119,341.80407 l -0.554489,-7.45123 0.001,-0.0842 -0.001,-0.0119 0.04393,-4.09278 -1.123962,0.007 -0.06098,-0.81907 10.395231,-3.31298 19.667533,0.2651 32.928741,17.75293 44.22831,2.24999 35.58025,22.96035 c 9.7699,6.3444 29.78043,-4.17818 45.34607,23.03012 3.23442,5.6537 4.04331,18.49505 7.06521,23.35465 5.30679,8.534 22.36009,1.3069 34.08784,-12.0003 l -3.60082,-38.24935 2.79621,-33.14991 c 0,0 -16.41752,-4.23307 -21.96145,-22.56607 z m -255.641242,26.97458 h 7.499801 c 6.061902,0.14143 25.19616669,5.307 27.5399208,5.7981 1.9056004,0.37169 3.3725096,1.26379 4.4229858,2.5771 2.3375557,7.20578 2.7725531,16.22491 1.4190349,16.99793 l -5.2709961,3.01067 -12.8648474,1.48983 -13.147002,-0.50539 c -2.79472,-0.2575 -4.779288,-1.67284 -5.828068,-4.42454 l -4.62349,-16.61242 c -0.896319,-3.22053 -0.225632,-5.90992 0.852661,-8.33128 z"
       sodipodi:nodetypes="ccsccccccccccccccccccccccccccccccccccccccccscccccccccccccccccccccccccccccssccccccccccccccsc" />
    <rect
       style="opacity:1;fill:#666666;fill-opacity:1;stroke:none;stroke-width:2.15213;stroke-linecap:round;stroke-linejoin:round"
       id="rect27"
       width="350.28311"
       height="9.8308315"
       x="-202.97604"
       y="267.37091" />
    <g
       id="g20"
       inkscape:label="body_belakang">
      <path
         id="path174-97-7-4"
         style="vector-effect:non-scaling-stroke;fill:#88aa00;stroke:#000000;stroke-width:0.32811;stroke-linecap:round;stroke-linejoin:round;-inkscape-stroke:hairline"
         d="m 165.8914,334.56594 c -1.8865,-2.3603 -7.2984,-8.4997 -8.0681,-10.683 l -1.9152,-7.1779 c 0.023,-1.0463 -0.3687,-3.6182 -2.4272,-3.9181 h -8.4718 l -8.5531,-3e-4 v 15.9711 l 13.8353,11.3456 c 18.6079,13.8008 39.0805,9.7801 46.0877,11.1578 0.5496,0.1081 1.2581,-0.01 1.4665,-0.2196 2.5786,-2.7676 6.4362,-1.0695 7.9308,0.085 l 1.2925,0.6718 13.1516,-0.7679 v -19.2732 -16.5908 c 0,-1.3187 -1.0615,-2.3802 -2.3802,-2.3802 h -22.1206 c -0.2959,0 -0.5757,0.06 -0.8367,0.1582 -0.6149,0.4176 -1.0866,0.9339 -1.4278,1.5218 -0.3156,3.9817 -0.1158,3.0643 -0.1158,7.0719 8.7441,8.502 17.4085,-8.4222 12.5791,19.3151 -0.4548,2.6121 -6.8297,-0.7004 -9.7007,-0.6077 -4.9487,0.1598 -13.497,-2.6094 -14.0729,0.5567 l -0.7504,7.4507 -16.1985,-4.4104 c 0,0 1.0984,-8.7727 0.6955,-9.2768 z"
         sodipodi:nodetypes="scccccccscccccssscccsscccss" />
      <path
         id="path339-3"
         style="vector-effect:non-scaling-stroke;fill:#88aa00;stroke:#000000;stroke-width:0.264583;stroke-dasharray:none;-inkscape-stroke:hairline"
         d="m 161.2842,309.84374 -3.8708,3 h -14.9158 l 5.2488,15.3663 6.4646,4.6221 h 13.2621 c 0.8247,-3.8034 3.0056,-2.9102 5.9163,-0.364 2.6032,2.2773 6.3858,4.7064 10.8634,4.3302 0.3218,0.055 0.6473,0.083 0.9736,0.085 3.5534,0.1 7.3431,-4.5927 6.7666,-8.0154 -0.5458,-2.6023 2.3695,-1.8222 3.2239,-0.49 0.4991,0.7782 1.2393,1.0665 1.2393,1.0665 l 9.2579,-3.667 0.049,-12.9341 h -12.8715 l -1.2196,-3 z"
         sodipodi:nodetypes="ccccccscccscccccc" />
      <path
         style="fill:#88aa00;stroke-width:1.09429"
         d="m 147.5136,322.1062 c -4.5173,-3.41807 -4.609,-3.49967 -9.9067,-8.82112 l -5.3471,-5.37113 V 286.1625 264.41105 l 1.8973,-1.57948 1.8971,-1.5795 h 7.9735 c 8.651,0 53.4249,3.15027 59.5654,3.15027 h 5.4312 l 0.4572,0.52993 c 0.2515,0.29147 0.7229,0.8324 1.0476,1.20208 0.3246,0.36968 1.0707,1.25635 1.658,1.97038 1.6972,2.06355 2.352,2.85391 3.0004,3.62145 0.5911,0.69977 1.0687,1.6891 2.8677,5.94045 1.0036,2.37135 1.4194,3.32592 3.1059,7.12954 l 1.213,2.73576 0.045,12.92717 0.045,12.92717 -6.0987,6.09879 -6.0988,6.09877 -29.0961,-0.0138 -29.0959,-0.0138 z m 58.974,-4.34403 c 0.8291,-0.77894 0.2919,-2.12655 -0.8478,-2.12655 -0.6424,0 -1.2556,0.60716 -1.2556,1.24353 0,1.06415 1.3205,1.6185 2.1034,0.88302 z m -53.4119,-0.70967 c 0.2238,-0.22384 0.4069,-0.6003 0.4069,-0.83656 0,-0.50931 -0.6762,-1.24353 -1.1452,-1.24353 -1.056,0 -1.7198,0.93258 -1.2755,1.79183 0.4223,0.81645 1.3524,0.94959 2.0138,0.28826 z m 24.1048,-15.11802 c 0.4558,-0.57953 0.4341,-1.14586 -0.063,-1.64322 -0.4974,-0.49735 -1.0637,-0.51919 -1.6432,-0.0634 -0.5474,0.43059 -0.5989,1.3181 -0.1051,1.8118 0.4938,0.49371 1.3813,0.44215 1.8119,-0.10527 z m 18.435,0.26098 c 0.8098,-0.43335 0.687,-1.78435 -0.1953,-2.14982 -0.9536,-0.39496 -1.8133,0.33242 -1.671,1.41378 0.097,0.73751 1.1141,1.13862 1.8663,0.73604 z m -55.7379,-25.30101 c 0.8024,-1.02009 -0.5681,-2.29832 -1.4831,-1.38328 -0.6521,0.65211 -0.1805,1.82384 0.734,1.82384 0.2383,0 0.544,-0.17985 0.7491,-0.44056 z m 64.5481,-6.05855 c 0.5178,-0.5988 0.3441,-1.33733 -0.4057,-1.72509 -0.4428,-0.22892 -0.5295,-0.22749 -0.8992,0.0148 -0.5364,0.35145 -0.7634,0.96036 -0.5587,1.49881 0.2929,0.77015 1.2834,0.88254 1.8636,0.21148 z"
         id="path536"
         sodipodi:nodetypes="cscccccsscsssscsccccccccssssssscsccssccsssscsscssccs" />
    </g>
    <path
       id="trigger"
       style="display:inline;fill:#ffffff;fill-opacity:1;stroke:#000000;stroke-width:0.5;stroke-dasharray:none"
       inkscape:transform-center-x="-1.2966519"
       inkscape:transform-center-y="-1.1083962"
       d="m 179.8093,318.30274 c -5.3633,0.15124 -11.2763,8.56131 -5.9216,14.5154 l 3.6478,0.80667 0.848,0.85886 0.1075,2.22364 c 0.1088,0.0658 0.8045,0.33945 0.924,0.32142 0.7104,-0.10691 3.8442,0.0282 4.6809,0.10232 6.4271,1.52851 14.4865,5.68351 18.4557,2.76004 1.6586,-1.22152 -0.8209,-6.24747 -3.4102,-3.94033 -1.7133,1.52662 -4.0549,-2.85329 -6.8393,-4.80229 -2.406,-1.68422 -4.6272,-3.76956 -5.9025,-5.79603 -0.6394,-1.016 -0.086,-2.2737 0.123,-3.51451 0.08,-0.47213 -0.1009,-1.0789 -0.4956,-1.23558 -0.4591,-0.18236 -0.9079,-0.27697 -1.4397,-0.30696 -0.222,-0.0126 -0.5224,-0.12907 -0.6733,-0.29197 -0.302,-0.41452 -0.2672,-0.37447 -0.4982,-0.68627 -0.5563,-0.35198 -1.8754,-0.9868 -2.7166,-1.00975 h -6e-4 l -0.3725,0.007 c -0.1715,-0.0127 -0.3438,-0.0168 -0.5168,-0.0119 z m 4.1424,10.37508 c 0.5054,0.004 0.9979,0.25492 1.2965,0.70952 0.4809,0.72393 0.2759,1.70294 -0.4511,2.18074 -0.7248,0.48032 -1.7038,0.27536 -2.1818,-0.45216 -0.4809,-0.72383 -0.2751,-1.70365 0.4517,-2.18075 0.2749,-0.1755 0.5808,-0.26237 0.8847,-0.25735 z m 16.0109,8.56537 c 0.8882,-0.0175 0.992,0.0932 1.2976,0.33073 0.2805,0.21815 0.6537,1.87299 -1.3705,1.6893 -1.1637,-0.10551 -0.793,-2.00216 0.073,-2.02003 z"
       inkscape:label="picu_bulpup" />
    <g
       id="g7"
       inkscape:label="main_pipa"
       transform="matrix(1.3851733,0,0,1,-94.304511,0)">
      <rect
         style="display:inline;vector-effect:non-scaling-stroke;fill:#008000;fill-opacity:1;stroke:#00ff00;stroke-width:0.792289;-inkscape-stroke:hairline"
         id="rect10"
         width="244.5809"
         height="25.234856"
         x="-244.82484"
         y="286.88565"
         transform="scale(-1,1)" />
      <rect
         style="display:inline;vector-effect:non-scaling-stroke;fill:#99ff55;fill-opacity:1;stroke:#00ff00;stroke-width:0.608376;-inkscape-stroke:hairline"
         id="rect11"
         width="244.59285"
         height="16.455555"
         x="-244.83656"
         y="291.27518"
         transform="scale(-1,1)" />
    </g>
    <circle
       style="display:inline;fill:#000080;fill-opacity:1;stroke:none;stroke-width:1.14871;stroke-linecap:round;stroke-linejoin:round"
       id="paku3"
       cx="234.92477"
       cy="299.52148"
       r="1.25"
       inkscape:label="pasak_valve" />
    <g
       id="manometer-0"
       style="display:inline"
       transform="translate(64.513391,289.28718)"
       inkscape:label="manometer">
      <rect
         style="font-variation-settings:normal;vector-effect:non-scaling-stroke;fill:#008000;fill-opacity:1;fill-rule:evenodd;stroke:none;stroke-width:0.337184;stroke-linecap:round;stroke-linejoin:round;stroke-miterlimit:4;stroke-dasharray:none;stroke-dashoffset:0;stroke-opacity:1;-inkscape-stroke:hairline;stop-color:#000000"
         id="lubang_manometer-8"
         width="12.148543"
         height="10.653667"
         x="39.562149"
         y="20.189608" />
      <rect
         style="font-variation-settings:normal;vector-effect:non-scaling-stroke;fill:#ffffff;fill-opacity:1;fill-rule:evenodd;stroke:none;stroke-width:0.264583;stroke-linecap:round;stroke-linejoin:round;stroke-miterlimit:4;stroke-dasharray:none;stroke-dashoffset:0;stroke-opacity:1;-inkscape-stroke:hairline;stop-color:#000000"
         id="rect521-8"
         width="7.4802346"
         height="10.653667"
         x="41.896255"
         y="20.189608" />
      <circle
         style="fill:#ffffff;fill-opacity:1;stroke:#ff0000;stroke-width:2;stroke-linecap:round;stroke-linejoin:round;stroke-dasharray:none"
         id="circle521-5"
         cx="45.199356"
         cy="40.605377"
         r="14.838552" />
      <circle
         style="fill:#ffffff;fill-opacity:1;stroke:#ff0000;stroke-width:2;stroke-linecap:round;stroke-linejoin:round;stroke-dasharray:none"
         id="mano_apar-0"
         cx="45.199356"
         cy="40.605377"
         r="14.838552" />
      <rect
         style="vector-effect:non-scaling-stroke;fill:#000000;fill-opacity:1;stroke:#1a1a1a;stroke-width:0.143298;stroke-linecap:round;stroke-linejoin:round;-inkscape-stroke:hairline"
         id="oring_drat_manometer-9"
         width="2.5228634"
         height="9.6703024"
         x="18.76638"
         y="-50.297737"
         rx="1.2614317"
         ry="1.5065098"
         transform="rotate(90)" />
    </g>
    <path
       style="display:inline;opacity:0.557078;vector-effect:non-scaling-stroke;fill:none;stroke:#000000;stroke-width:0.312363;-inkscape-stroke:hairline"
       d="m 162.5615,314.44027 c 0.1022,0 0.2073,-0.01 0.3138,-0.011 0.8538,0.062 1.494,0.8075 1.4308,1.6638 -0.064,0.8551 -0.8054,1.4956 -1.6592,1.4333 -0.8537,-0.062 -1.495,-0.8077 -1.4321,-1.6626 0.056,-0.7489 0.6314,-1.3342 1.3466,-1.4272 z"
       id="path465"
       inkscape:export-filename="path21-2-2.svg"
       inkscape:export-xdpi="96"
       inkscape:export-ydpi="96"
       inkscape:transform-center-x="35.652746"
       inkscape:transform-center-y="-0.96046492" />
    <path
       id="sear"
       style="fill:#ffffff;fill-opacity:1;stroke:#000000;stroke-width:0.5;stroke-dasharray:none"
       inkscape:transform-center-x="-9.8008902"
       inkscape:transform-center-y="-2.3543811"
       d="m 182.3517,304.76957 -3.9744,0.303 c -0.3921,0.05 -0.4446,0.8453 -0.4577,1.2065 -0.022,0.6029 -0.1712,2.1536 -0.5653,2.5457 -1.308,1.3009 -6.7136,1.8197 -9.2449,1.8132 -19.0407,-0.048 -11.7742,12.0816 -6.8674,12.1964 3.7617,0.088 5.2209,-1.0429 7.246,-1.6335 14.0695,-4.1031 12.0827,-6.022 15.4235,-1.4164 0.1504,0.1633 0.4502,0.2915 0.6726,0.294 0.6255,0.01 1.2473,0.072 1.8573,0.193 0.7805,0.1546 2.0702,-0.7676 2.6567,-1.2924 0.9502,-2.4567 1.2033,-4.8262 0.073,-7.9026 -1.5016,-1.963 -4.6438,-6.3489 -5.8712,-6.3627 z m -19.7796,9.6816 c 0.1022,0 0.2073,-0.01 0.3138,-0.011 0.8537,0.063 1.4935,0.8084 1.4298,1.6646 -0.065,0.8551 -0.8063,1.4952 -1.66,1.4324 -0.8537,-0.063 -1.4945,-0.8086 -1.4311,-1.6635 0.056,-0.7488 0.6322,-1.3338 1.3474,-1.4263 z"
       inkscape:label="sear" />
    <rect
       style="font-variation-settings:normal;vector-effect:non-scaling-stroke;fill:#ffffff;fill-opacity:1;fill-rule:evenodd;stroke:none;stroke-width:0.264583;stroke-linecap:round;stroke-linejoin:round;stroke-miterlimit:4;stroke-dasharray:none;stroke-dashoffset:0;stroke-opacity:1;-inkscape-stroke:hairline;stop-color:#000000"
       id="rect491"
       width="7.4802346"
       height="10.653667"
       x="157.22108"
       y="279.7543"
       inkscape:label="transfer_angin" />
    <g
       id="pompa"
       style="display:inline"
       transform="matrix(-1,0,0,1,80.449936,287.90802)">
      <g
         id="full_body_pompa">
        <rect
           style="display:inline;vector-effect:non-scaling-stroke;fill:#666666;fill-opacity:0.70303;stroke:none;stroke-width:0.676923;-inkscape-stroke:hairline"
           id="pipa_pompa-7"
           width="222.25795"
           height="10.4"
           x="-210.37871"
           y="6.3949418"
           transform="scale(-1,1)" />
        <g
           id="inlet_valve-7">
          <path
             id="3d_inlet-3"
             style="fill:#ff0000;stroke-width:2.36213;stroke-linecap:round;stroke-linejoin:round"
             d="m -13.07442,7.0623701 h 5.7129375 l 1,2.3196116 v 4.3907663 l -1,2.319613 H -13.07442 Z"
             sodipodi:nodetypes="ccccccc" />
          <path
             id="m5_inlet-6"
             style="fill:#cccccc;stroke-width:1.42001;stroke-linecap:round;stroke-linejoin:round"
             d="m -2.0593058,7.656897 -2.3776327,1.9998779 v 0.014469 H -16.762801 v 3.8121711 h 12.3258625 v 0.01447 l 2.3776327,1.999878 z" />
          <rect
             style="vector-effect:non-scaling-stroke;fill:#000000;fill-opacity:1;stroke:#1a1a1a;stroke-width:0.143298;stroke-linecap:round;stroke-linejoin:round;-inkscape-stroke:hairline"
             id="oring_inlet-5"
             width="2.5228634"
             height="9.6703024"
             x="-5.9880624"
             y="6.759798"
             rx="1.2614317"
             ry="1.5065098" />
        </g>
        <path
           id="rect6-6"
           style="fill:#1a1a1a;stroke-width:1.72345;stroke-linecap:round;stroke-linejoin:round"
           d="M 206.34164,3.9077718 V 5.547465 h -8.09718 v 12.094869 h 8.09718 v 1.64021 h 5.84254 V 17.642334 5.547465 3.9077718 Z" />
        <rect
           style="vector-effect:non-scaling-stroke;fill:#484537;fill-opacity:1;stroke:#000000;stroke-width:0.763195;stroke-linecap:round;stroke-linejoin:round;-inkscape-stroke:hairline"
           id="spacer"
           width="45.846466"
           height="15.094481"
           x="-150.09621"
           y="4.0477009"
           transform="scale(-1,1)"
           inkscape:label="pipa_spacer" />
      </g>
      <g
         id="full_gagang_pompa">
        <rect
           style="display:inline;vector-effect:non-scaling-stroke;fill:#ececec;fill-opacity:0.70303;stroke:#666666;stroke-width:0.614045;-inkscape-stroke:hairline"
           id="batang_pompa-7"
           width="251.16815"
           height="7.5726523"
           x="-261.0126"
           y="7.8086152"
           transform="scale(-1,1)" />
        <path
           id="tutup_drat_gagangpompa-7"
           style="fill:#1a1a1a;stroke-width:1.72345;stroke-linecap:round;stroke-linejoin:round"
           d="m 212.47904,3.9075679 23.77961,1.5 V 17.782315 l -23.77961,1.5 z"
           sodipodi:nodetypes="ccccc" />
        <rect
           style="vector-effect:non-scaling-stroke;fill:#008000;fill-opacity:1;stroke:none;stroke-width:0.291602;stroke-linecap:round;stroke-linejoin:round;-inkscape-stroke:hairline"
           id="handle_pompa-1"
           width="61.753296"
           height="24.389341"
           x="224.07207"
           y="-0.59976029" />
        <g
           id="piston_pompa-1"
           transform="translate(-20.68227)">
          <path
             id="3d_piston-5"
             style="fill:#ff0000;stroke:none;stroke-width:1.82762;stroke-linecap:round;stroke-linejoin:round"
             d="m 19.050517,7.8889242 v 7.4119508 h 1.837614 v -1.837614 h 1.899109 l 2.021445,1.837614 7.90198,-0.5 V 8.3889242 l -7.90198,-0.5 -2.021445,1.8376139 H 20.888131 V 7.8889242 Z"
             sodipodi:nodetypes="ccccccccccccc" />
          <rect
             style="vector-effect:non-scaling-stroke;fill:#4d4d4d;fill-opacity:1;stroke:#1a1a1a;stroke-width:0.143298;stroke-linecap:round;stroke-linejoin:round;-inkscape-stroke:hairline"
             id="oring_piston-9"
             width="2.5228634"
             height="9.6703024"
             x="21.091139"
             y="6.759798"
             rx="1.2614317"
             ry="1.5065098" />
        </g>
      </g>
      <rect
         style="display:inline;vector-effect:non-scaling-stroke;fill:#ffffff;fill-opacity:1;stroke:#000000;stroke-width:0.260675;stroke-linecap:round;stroke-linejoin:round;-inkscape-stroke:hairline"
         id="ring1"
         width="5"
         height="16.146729"
         x="-155.28053"
         y="3.5216956"
         transform="matrix(-1,0,0,1,-1.1083333e-5,-1.2500004e-7)" />
      <g
         id="spacer2">
        <rect
           style="display:inline;vector-effect:non-scaling-stroke;fill:#000000;fill-opacity:1;stroke:#000000;stroke-width:0.260675;stroke-linecap:round;stroke-linejoin:round;-inkscape-stroke:hairline"
           id="oringsumbat"
           width="5"
           height="16.146729"
           x="-59.681068"
           y="3.5216956"
           transform="matrix(-1,0,0,1,-1.1083333e-5,-1.2500004e-7)"
           rx="2.5"
           ry="2.5"
           inkscape:label="oring_tutupdepan" />
        <rect
           style="display:inline;vector-effect:non-scaling-stroke;fill:#999999;fill-opacity:1;stroke:#000000;stroke-width:0.647378;stroke-linecap:round;stroke-linejoin:round;-inkscape-stroke:hairline"
           id="spaceralmu"
           width="39.16893"
           height="12.712414"
           x="-98.694717"
           y="5.2387347"
           transform="matrix(-1,0,0,1,-1.1083333e-5,-1.2500004e-7)"
           inkscape:label="pipa_spacer" />
        <rect
           style="display:inline;vector-effect:non-scaling-stroke;fill:#ffffff;fill-opacity:1;stroke:#000000;stroke-width:0.260675;stroke-linecap:round;stroke-linejoin:round;-inkscape-stroke:hairline"
           id="ring2"
           width="5"
           height="16.146729"
           x="-104.18963"
           y="3.5216956"
           transform="matrix(-1,0,0,1,-1.1083333e-5,-1.2500004e-7)" />
      </g>
    </g>
    <g
       id="valve_f03"
       inkscape:label="valve_f03">
      <rect
         style="display:inline;vector-effect:non-scaling-stroke;fill:#666666;fill-opacity:0.70303;stroke:none;stroke-width:0.399853;-inkscape-stroke:hairline"
         id="rect486"
         width="77.549561"
         height="10.4"
         x="-213.59169"
         y="294.30295"
         transform="scale(-1,1)"
         inkscape:label="batang_valve" />
      <rect
         style="vector-effect:non-scaling-stroke;fill:#000000;fill-opacity:1;stroke:#1a1a1a;stroke-width:0.297619;stroke-linecap:round;stroke-linejoin:round;-inkscape-stroke:hairline"
         id="rect524"
         width="9.2441339"
         height="11.384419"
         x="131.42006"
         y="293.81076"
         rx="4.622067"
         ry="4.622067"
         inkscape:label="sumbat_valve" />
      <path
         id="rect525"
         style="display:inline;vector-effect:non-scaling-stroke;fill:#ff0000;fill-opacity:1;stroke:none;stroke-width:0.427115;-inkscape-stroke:hairline"
         d="m 206.7094,290.64087 v 17.72398 l 33.59369,0 a 4.5217546,4.5217546 135 0 0 4.52175,-4.52175 l 0,-8.68048 a 4.5217546,4.5217546 45 0 0 -4.52175,-4.52175 z m 11.43474,6.68589 h 19.1324 v 4.35271 h -19.1324 z"
         inkscape:label="3d_pendorong"
         sodipodi:nodetypes="cccccccccc"
         inkscape:path-effect="#path-effect2"
         inkscape:original-d="m 206.7094,290.64087 v 17.72398 h 38.11544 v -17.72398 z m 11.43474,6.68589 h 19.1324 v 4.35271 h -19.1324 z" />
      <rect
         style="vector-effect:non-scaling-stroke;fill:#ff6600;fill-opacity:1;stroke:#000000;stroke-width:0.418631;stroke-linecap:round;stroke-linejoin:round;-inkscape-stroke:hairline"
         id="rect531"
         width="28.111084"
         height="7.4069266"
         x="-206.60782"
         y="291.99344"
         transform="scale(-1,1)"
         inkscape:label="selang_pendorong" />
      <g
         id="valve_dumping"
         style="display:inline"
         transform="translate(75.610424,288.38454)">
        <rect
           style="vector-effect:non-scaling-stroke;fill:#ffffff;fill-opacity:1;stroke:#000000;stroke-width:0.259873;stroke-linecap:round;stroke-linejoin:round;-inkscape-stroke:hairline"
           id="akrilik_valve_ring-4"
           width="5"
           height="16.047525"
           x="-102.16786"
           y="3.5711789"
           transform="scale(-1,1)" />
        <rect
           style="vector-effect:non-scaling-stroke;fill:#ff0000;fill-opacity:1;stroke:#000000;stroke-width:0.479182;stroke-linecap:round;stroke-linejoin:round;-inkscape-stroke:hairline"
           id="3d_valve_ring-8"
           width="17"
           height="16.047525"
           x="-97.244644"
           y="3.5711789"
           transform="scale(-1,1)" />
        <rect
           style="vector-effect:non-scaling-stroke;fill:#000000;fill-opacity:1;stroke:#1a1a1a;stroke-width:0.274449;stroke-linecap:round;stroke-linejoin:round;-inkscape-stroke:hairline"
           id="oring_valve_dumping-1"
           width="5"
           height="17.898239"
           x="75.34169"
           y="2.645822"
           rx="2.5"
           ry="2.7883174" />
      </g>
    </g>
    <circle
       style="display:inline;fill:#000080;fill-opacity:1;stroke:none;stroke-width:1.74019;stroke-linecap:round;stroke-linejoin:round"
       id="pasak1"
       cx="-76.114456"
       cy="292.55295"
       r="1.25"
       inkscape:label="pasak2" />
    <circle
       style="display:inline;fill:#000080;fill-opacity:1;stroke:none;stroke-width:1.74019;stroke-linecap:round;stroke-linejoin:round"
       id="pasak2"
       cx="-76.114456"
       cy="306.19946"
       r="1.25"
       inkscape:label="pasak1" />
    <ellipse
       style="fill:#ff0000;fill-opacity:0.521951;stroke:#ff0000;stroke-width:2;stroke-linecap:round;stroke-linejoin:round;stroke-dasharray:none"
       id="path21"
       cx="23.388132"
       cy="298.18466"
       rx="11.088537"
       ry="11.173568"
       inkscape:label="bocor_1" />
    <ellipse
       style="fill:#ffff00;fill-opacity:0.521951;stroke:none;stroke-width:0.837238;stroke-linecap:round;stroke-linejoin:round"
       id="ellipse21"
       cx="-85.297234"
       cy="299.50308"
       rx="11.088537"
       ry="11.173568"
       inkscape:label="cek_1" />
    <ellipse
       style="fill:#ff0000;fill-opacity:0.521951;stroke:#ff0000;stroke-width:0.837238;stroke-linecap:round;stroke-linejoin:round"
       id="ellipse22"
       cx="88.833382"
       cy="299.50308"
       rx="11.088537"
       ry="11.173568"
       inkscape:label="bocor_2" />
    <ellipse
       style="fill:#ffff00;fill-opacity:0.521951;stroke:none;stroke-width:0.837238;stroke-linecap:round;stroke-linejoin:round"
       id="ellipse23"
       cx="-128.61534"
       cy="299.50308"
       rx="11.088537"
       ry="11.173568"
       inkscape:label="cek_2" />
    <ellipse
       style="fill:#ff0000;fill-opacity:0.521951;stroke:#ff0000;stroke-width:0.837238;stroke-linecap:round;stroke-linejoin:round"
       id="ellipse24"
       cx="152.6718"
       cy="299.50308"
       rx="11.088537"
       ry="11.173568"
       inkscape:label="bocor_3" />
    <ellipse
       style="fill:#ffff00;fill-opacity:0.521951;stroke:none;stroke-width:0.837238;stroke-linecap:round;stroke-linejoin:round"
       id="ellipse25"
       cx="162.76047"
       cy="282.25647"
       rx="11.088537"
       ry="11.173568"
       inkscape:label="cek_3" />
    <ellipse
       style="fill:#ff0000;fill-opacity:0.521951;stroke:#ff0000;stroke-width:0.837238;stroke-linecap:round;stroke-linejoin:round"
       id="ellipse26"
       cx="110.14977"
       cy="314.80362"
       rx="11.088537"
       ry="11.173568"
       inkscape:label="bocor_4" />
    <ellipse
       style="fill:#ffff00;fill-opacity:0.521951;stroke:none;stroke-width:0.837238;stroke-linecap:round;stroke-linejoin:round"
       id="ellipse27"
       cx="110.14977"
       cy="326.99911"
       rx="11.088537"
       ry="11.173568"
       inkscape:label="cek_4" />
    <text
       xml:space="preserve"
       style="font-size:21.6376px;line-height:1.25;font-family:'Baby Panda';-inkscape-font-specification:'Baby Panda, Normal';display:inline;stroke-width:0.735583"
       x="-186.55511"
       y="230.7061"
       id="text3"><tspan
         sodipodi:role="line"
         id="tspan3"
         style="stroke-width:0.735583"
         x="-186.55511"
         y="230.7061">Seri F04</tspan></text>
    <path
       id="angin"
       style="baseline-shift:baseline;display:inline;overflow:visible;opacity:0.0290276;vector-effect:none;fill:#00ffff;enable-background:accumulate;stop-color:#000000"
       d="m 125.43269,265.16706 -15.01407,6.56446 15.72359,4.61315 c -1.24637,-1.28375 -2.02585,-2.83687 -2.32648,-4.45967 6.24254,-0.37051 13.00416,-0.45379 18.90479,-0.0527 6.1407,0.4174 11.38596,1.42754 13.93714,2.94504 3.7751,2.24552 4.66329,6.06298 4.63124,9.52758 -0.0321,3.46461 -1.04903,6.36912 -1.04903,6.36912 l 1.8867,0.66404 c 0,0 1.12663,-3.17047 1.16221,-7.01559 0.0356,-3.84512 -1.08479,-8.57253 -5.60948,-11.26391 -3.1992,-1.90295 -8.55533,-2.79656 -14.82235,-3.22254 -3.13351,-0.21299 -6.48592,-0.29176 -9.86917,-0.26562 -3.12205,0.0241 -6.27125,0.13868 -9.30072,0.31884 0.0905,-1.6517 0.66811,-3.29273 1.74563,-4.72219 z" />
    <path
       id="tekanan"
       style="display:inline;opacity:0.0145138;fill:#ff0000;fill-opacity:0.456884;stroke:none;stroke-width:0;stroke-linecap:round;stroke-linejoin:round;stroke-dasharray:none"
       d="m 97.858512,292.51097 h 46.933518 v 14.20561 H 97.858512 Z" />
    <path
       d="m -12.041169,323.73054 c -4.06936,7.2226 -5.39446,10.538 -3.21827,22.1189 0.44895,2.3892 0.30248,5.9474 -0.42496,8.7887 -0.76869,3.0025 -2.08895,6.225 -4.06901,8.3602 -0.33318,0.2317 -0.43072,1.4753 0.93844,1.5172 3.27177,0.068 8.16122,-3.9168 10.3156501,-8.4992 0.69121,-1.4702 1.10073,-3.0018 1.08521,-4.4809 -0.0492,-4.686 12.21334,-17.852 9.80508,-22.8605 -0.4278,-0.4564 -0.87376,-0.8939 -1.35237,-1.2904 -2.19096,-1.8151 -4.94631,1.7794 -7.66361,-3.4597 -0.0719,-1.448 -1.26689,-2.585 -2.67909,-2.5849 -1.4121901,10e-5 -2.0622801,1.1929 -2.7370701,2.3906 z m 3.6178701,-0.067 c 0.0539,0.125 0.0817,0.2597 0.0817,0.3959 -6e-5,0.5522 -0.44772,0.9999 -0.99994,0.9999 -0.55222,0 -0.9998801,-0.4477 -0.9999401,-0.9999 -6e-5,-0.1603 0.0384,-0.3182 0.11214,-0.4605 0.17198,-0.3315 0.5143401,-0.5396 0.9006701,-0.5396 0.38632,10e-5 0.74731,0.2376 0.90537,0.6042 z"
       style="fill:#ffffff;stroke:#000000;stroke-width:0.5;stroke-linecap:round;paint-order:fill markers stroke;stroke-dasharray:none"
       id="picu"
       sodipodi:nodetypes="ssaccsscsccsssssscs"
       inkscape:transform-center-x="-1.3399069"
       inkscape:transform-center-y="3.7393364" />
    <path
       style="font-variation-settings:normal;display:inline;vector-effect:non-scaling-stroke;fill:#ffffff;fill-opacity:1;fill-rule:evenodd;stroke:#000000;stroke-width:0.264583;stroke-linecap:round;stroke-linejoin:round;stroke-miterlimit:4;stroke-dasharray:none;stroke-dashoffset:0;stroke-opacity:1;-inkscape-stroke:hairline;stop-color:#000000"
       d="m -10.262321,338.14255 c 0.587253,-0.18506 1.2133275,0.14041 1.3987643,0.72718 0.1851824,0.58741 -0.1397259,1.21382 -0.7271556,1.39938 -0.5872527,0.18506 -1.2135397,-0.14048 -1.3988707,-0.72767 -0.185119,-0.58727 0.140405,-1.2134 0.727262,-1.39889 z"
       id="path357" />
    <path
       style="fill:none;stroke:#000000;stroke-width:0.264583px;stroke-linecap:butt;stroke-linejoin:miter;stroke-opacity:1"
       d="M -9.0731838,324.66429 C 36.280998,315.50847 39.679461,318.98835 86.16551,319.45341"
       id="path1"
       sodipodi:nodetypes="cc" />
    <path
       style="fill:none;stroke:#000000;stroke-width:0.264583px;stroke-linecap:butt;stroke-linejoin:miter;stroke-opacity:1"
       d="m 200.74074,338.57313 5.60723,-18.9682 -137.81814,-0.18202"
       id="path2"
       sodipodi:nodetypes="ccc" />
  </g>
</svg>
